<?xml version="1.0" encoding="UTF-8" standalone="no"?>
<!DOCTYPE svg PUBLIC "-//W3C//DTD SVG 1.1//EN"
 "http://www.w3.org/Graphics/SVG/1.1/DTD/svg11.dtd">
<!-- Generated by graphviz version 2.38.0 (20140413.2041)
 -->
<!-- Title: G Pages: 1 -->
<svg width="403pt" height="299pt"
 viewBox="0.00 0.00 402.50 298.74" xmlns="http://www.w3.org/2000/svg" xmlns:xlink="http://www.w3.org/1999/xlink">
<g id="graph0" class="graph" transform="scale(1 1) rotate(0) translate(4 294.74)">
<title>G</title>
<polygon fill="white" stroke="none" points="-4,4 -4,-294.74 398.5,-294.74 398.5,4 -4,4"/>
<!-- 3 -->
<g id="node1" class="node"><title>3</title>
<polygon fill="none" stroke="black" points="274.5,-38 176.5,-38 176.5,-0 274.5,-0 274.5,-38"/>
<text text-anchor="middle" x="225.5" y="-22.8" font-family="Times,serif" font-size="14.00">console_xen_0</text>
<text text-anchor="middle" x="225.5" y="-7.8" font-family="Times,serif" font-size="14.00">Console_xen</text>
</g>
<!-- 4 -->
<g id="node2" class="node"><title>4</title>
<polygon fill="none" stroke="black" points="394.5,-38 292.5,-38 292.5,-0 394.5,-0 394.5,-38"/>
<text text-anchor="middle" x="343.5" y="-22.8" font-family="Times,serif" font-size="14.00">console_unix_0</text>
<text text-anchor="middle" x="343.5" y="-7.8" font-family="Times,serif" font-size="14.00">Console_unix</text>
</g>
<!-- 5 -->
<g id="node3" class="node"><title>5</title>
<ellipse fill="none" stroke="black" cx="230.5" cy="-100.87" rx="33.4697" ry="26.7407"/>
<text text-anchor="middle" x="230.5" y="-104.67" font-family="Times,serif" font-size="14.00">If</text>
<text text-anchor="middle" x="230.5" y="-89.6701" font-family="Times,serif" font-size="14.00">target</text>
</g>
<!-- 5&#45;&gt;3 -->
<g id="edge1" class="edge"><title>5&#45;&gt;3:n</title>
<path fill="none" stroke="black" stroke-dasharray="1,5" d="M227.476,-74.0194C226.719,-66.059 226.03,-57.0578 225.701,-48.2228"/>
<polygon fill="black" stroke="black" points="229.196,-47.9291 225.5,-38 222.198,-48.067 229.196,-47.9291"/>
</g>
<!-- 5&#45;&gt;4 -->
<g id="edge2" class="edge"><title>5&#45;&gt;4:n</title>
<path fill="none" stroke="black" stroke-width="2" stroke-dasharray="1,5" d="M263.184,-95.9641C293.298,-90.527 334.461,-77.7546 342.213,-48.198"/>
<polygon fill="black" stroke="black" stroke-width="2" points="345.721,-48.3595 343.5,-38 338.776,-47.4832 345.721,-48.3595"/>
</g>
<!-- 7 -->
<g id="node4" class="node"><title>7</title>
<polygon fill="none" stroke="black" points="67,-38 0,-38 0,-0 67,-0 67,-38"/>
<text text-anchor="middle" x="33.5" y="-22.8" font-family="Times,serif" font-size="14.00">argv_xen</text>
<text text-anchor="middle" x="33.5" y="-7.8" font-family="Times,serif" font-size="14.00">Bootvar</text>
</g>
<!-- 8 -->
<g id="node5" class="node"><title>8</title>
<polygon fill="none" stroke="black" points="156,-38 85,-38 85,-0 156,-0 156,-38"/>
<text text-anchor="middle" x="120.5" y="-22.8" font-family="Times,serif" font-size="14.00">argv_unix</text>
<text text-anchor="middle" x="120.5" y="-7.8" font-family="Times,serif" font-size="14.00">OS.Env</text>
</g>
<!-- 9 -->
<g id="node6" class="node"><title>9</title>
<ellipse fill="none" stroke="black" cx="117.5" cy="-100.87" rx="33.4697" ry="26.7407"/>
<text text-anchor="middle" x="117.5" y="-104.67" font-family="Times,serif" font-size="14.00">If</text>
<text text-anchor="middle" x="117.5" y="-89.6701" font-family="Times,serif" font-size="14.00">target</text>
</g>
<!-- 9&#45;&gt;7 -->
<g id="edge3" class="edge"><title>9&#45;&gt;7:n</title>
<path fill="none" stroke="black" stroke-dasharray="1,5" d="M86.2215,-90.8057C65.4177,-82.9087 40.8527,-69.3159 34.8653,-47.9848"/>
<polygon fill="black" stroke="black" points="38.3225,-47.4336 33.5,-38 31.3871,-48.382 38.3225,-47.4336"/>
</g>
<!-- 9&#45;&gt;8 -->
<g id="edge4" class="edge"><title>9&#45;&gt;8:n</title>
<path fill="none" stroke="black" stroke-width="2" stroke-dasharray="1,5" d="M119.314,-73.9954C119.768,-66.0321 120.182,-57.0318 120.379,-48.2067"/>
<polygon fill="black" stroke="black" stroke-width="2" points="123.881,-48.0408 120.5,-38 116.882,-47.9578 123.881,-48.0408"/>
</g>
<!-- 10 -->
<g id="node7" class="node"><title>10</title>
<polygon fill="none" stroke="black" points="160.5,-201.74 74.5,-201.74 74.5,-163.74 160.5,-163.74 160.5,-201.74"/>
<text text-anchor="middle" x="117.5" y="-186.54" font-family="Times,serif" font-size="14.00">bootvar</text>
<text text-anchor="middle" x="117.5" y="-171.54" font-family="Times,serif" font-size="14.00">Bootvar_gen</text>
</g>
<!-- 10&#45;&gt;9 -->
<g id="edge5" class="edge"><title>10&#45;&gt;9</title>
<path fill="none" stroke="black" stroke-dasharray="5,2" d="M117.5,-163.616C117.5,-156.008 117.5,-146.875 117.5,-137.997"/>
<polygon fill="black" stroke="black" points="121,-137.796 117.5,-127.796 114,-137.796 121,-137.796"/>
</g>
<!-- 11 -->
<g id="node8" class="node"><title>11</title>
<polygon fill="none" stroke="black" points="226.5,-290.74 120.5,-290.74 120.5,-237.74 226.5,-237.74 226.5,-290.74"/>
<text text-anchor="middle" x="173.5" y="-275.54" font-family="Times,serif" font-size="14.00">mirage</text>
<text text-anchor="middle" x="173.5" y="-260.54" font-family="Times,serif" font-size="14.00">Mirage_runtime</text>
<text text-anchor="middle" x="173.5" y="-245.54" font-family="Times,serif" font-size="14.00">target</text>
</g>
<!-- 11&#45;&gt;10 -->
<g id="edge6" class="edge"><title>11&#45;&gt;10</title>
<path fill="none" stroke="black" stroke-dasharray="5,2" d="M155.473,-237.648C149.334,-228.933 142.459,-219.173 136.264,-210.378"/>
<polygon fill="black" stroke="black" points="138.968,-208.139 130.348,-201.979 133.245,-212.17 138.968,-208.139"/>
</g>
<!-- 15 -->
<g id="node9" class="node"><title>15</title>
<polygon fill="none" stroke="black" points="282.5,-201.74 178.5,-201.74 178.5,-163.74 282.5,-163.74 282.5,-201.74"/>
<text text-anchor="middle" x="230.5" y="-186.54" font-family="Times,serif" font-size="14.00">f1</text>
<text text-anchor="middle" x="230.5" y="-171.54" font-family="Times,serif" font-size="14.00">Unikernel.Main</text>
</g>
<!-- 11&#45;&gt;15 -->
<g id="edge7" class="edge"><title>11&#45;&gt;15</title>
<path fill="none" stroke="black" stroke-dasharray="5,2" d="M191.849,-237.648C198.098,-228.933 205.095,-219.173 211.401,-210.378"/>
<polygon fill="black" stroke="black" points="214.441,-212.145 217.423,-201.979 208.752,-208.067 214.441,-212.145"/>
</g>
<!-- 15&#45;&gt;5 -->
<g id="edge8" class="edge"><title>15&#45;&gt;5</title>
<path fill="none" stroke="black" d="M230.5,-163.616C230.5,-156.008 230.5,-146.875 230.5,-137.997"/>
<polygon fill="black" stroke="black" points="234,-137.796 230.5,-127.796 227,-137.796 234,-137.796"/>
</g>
</g>
</svg>
