<?xml version="1.0" encoding="UTF-8" standalone="no"?>
<!DOCTYPE svg PUBLIC "-//W3C//DTD SVG 1.1//EN"
 "http://www.w3.org/Graphics/SVG/1.1/DTD/svg11.dtd">
<!-- Generated by graphviz version 2.38.0 (20140413.2041)
 -->
<!-- Title: G Pages: 1 -->
<svg width="942pt" height="804pt"
 viewBox="0.00 0.00 942.00 804.22" xmlns="http://www.w3.org/2000/svg" xmlns:xlink="http://www.w3.org/1999/xlink">
<g id="graph0" class="graph" transform="scale(1 1) rotate(0) translate(4 800.22)">
<title>G</title>
<polygon fill="white" stroke="none" points="-4,4 -4,-800.22 938,-800.22 938,4 -4,4"/>
<!-- 3 -->
<g id="node1" class="node"><title>3</title>
<polygon fill="none" stroke="black" points="98,-275 7.10543e-15,-275 7.10543e-15,-237 98,-237 98,-275"/>
<text text-anchor="middle" x="49" y="-259.8" font-family="Times,serif" font-size="14.00">console_xen_0</text>
<text text-anchor="middle" x="49" y="-244.8" font-family="Times,serif" font-size="14.00">Console_xen</text>
</g>
<!-- 4 -->
<g id="node2" class="node"><title>4</title>
<polygon fill="none" stroke="black" points="218,-275 116,-275 116,-237 218,-237 218,-275"/>
<text text-anchor="middle" x="167" y="-259.8" font-family="Times,serif" font-size="14.00">console_unix_0</text>
<text text-anchor="middle" x="167" y="-244.8" font-family="Times,serif" font-size="14.00">Console_unix</text>
</g>
<!-- 5 -->
<g id="node3" class="node"><title>5</title>
<ellipse fill="none" stroke="black" cx="185" cy="-337.87" rx="33.4697" ry="26.7407"/>
<text text-anchor="middle" x="185" y="-341.67" font-family="Times,serif" font-size="14.00">If</text>
<text text-anchor="middle" x="185" y="-326.67" font-family="Times,serif" font-size="14.00">target</text>
</g>
<!-- 5&#45;&gt;3 -->
<g id="edge1" class="edge"><title>5&#45;&gt;3:n</title>
<path fill="none" stroke="black" stroke-dasharray="1,5" d="M151.731,-335.757C114.614,-332.686 58.6251,-321.89 50.1034,-284.963"/>
<polygon fill="black" stroke="black" points="53.5797,-284.554 49,-275 46.6222,-285.325 53.5797,-284.554"/>
</g>
<!-- 5&#45;&gt;4 -->
<g id="edge2" class="edge"><title>5&#45;&gt;4:n</title>
<path fill="none" stroke="black" stroke-width="2" stroke-dasharray="1,5" d="M174.425,-312.355C171.548,-304.146 168.892,-294.666 167.684,-285.202"/>
<polygon fill="black" stroke="black" stroke-width="2" points="171.162,-284.743 167,-275 164.177,-285.212 171.162,-284.743"/>
</g>
<!-- 7 -->
<g id="node4" class="node"><title>7</title>
<polygon fill="none" stroke="black" points="765.5,-453.74 670.5,-453.74 670.5,-400.74 765.5,-400.74 765.5,-453.74"/>
<text text-anchor="middle" x="718" y="-438.54" font-family="Times,serif" font-size="14.00">tcpv4_socket1</text>
<text text-anchor="middle" x="718" y="-423.54" font-family="Times,serif" font-size="14.00">Tcpv4_socket</text>
<text text-anchor="middle" x="718" y="-408.54" font-family="Times,serif" font-size="14.00">socket</text>
</g>
<!-- 8 -->
<g id="node5" class="node"><title>8</title>
<polygon fill="none" stroke="black" points="882,-453.74 784,-453.74 784,-400.74 882,-400.74 882,-453.74"/>
<text text-anchor="middle" x="833" y="-438.54" font-family="Times,serif" font-size="14.00">udpv4_socket1</text>
<text text-anchor="middle" x="833" y="-423.54" font-family="Times,serif" font-size="14.00">Udpv4_socket</text>
<text text-anchor="middle" x="833" y="-408.54" font-family="Times,serif" font-size="14.00">socket</text>
</g>
<!-- 13 -->
<g id="node6" class="node"><title>13</title>
<polygon fill="none" stroke="black" points="488.5,-127 421.5,-127 421.5,-89 488.5,-89 488.5,-127"/>
<text text-anchor="middle" x="455" y="-111.8" font-family="Times,serif" font-size="14.00">time</text>
<text text-anchor="middle" x="455" y="-96.8" font-family="Times,serif" font-size="14.00">OS.Time</text>
</g>
<!-- 15 -->
<g id="node7" class="node"><title>15</title>
<polygon fill="none" stroke="black" points="565.5,-275 502.5,-275 502.5,-237 565.5,-237 565.5,-275"/>
<text text-anchor="middle" x="534" y="-259.8" font-family="Times,serif" font-size="14.00">random</text>
<text text-anchor="middle" x="534" y="-244.8" font-family="Times,serif" font-size="14.00">Random</text>
</g>
<!-- 17 -->
<g id="node8" class="node"><title>17</title>
<polygon fill="none" stroke="black" points="624.5,-53 563.5,-53 563.5,-0 624.5,-0 624.5,-53"/>
<text text-anchor="middle" x="594" y="-37.8" font-family="Times,serif" font-size="14.00">net1</text>
<text text-anchor="middle" x="594" y="-22.8" font-family="Times,serif" font-size="14.00">Netif</text>
<text text-anchor="middle" x="594" y="-7.8" font-family="Times,serif" font-size="14.00">network</text>
</g>
<!-- 24 -->
<g id="node9" class="node"><title>24</title>
<polygon fill="none" stroke="black" points="806,-127 752,-127 752,-89 806,-89 806,-127"/>
<text text-anchor="middle" x="779" y="-111.8" font-family="Times,serif" font-size="14.00">clock</text>
<text text-anchor="middle" x="779" y="-96.8" font-family="Times,serif" font-size="14.00">Clock</text>
</g>
<!-- 51 -->
<g id="node10" class="node"><title>51</title>
<ellipse fill="none" stroke="black" cx="422" cy="-516.61" rx="30.3115" ry="26.7407"/>
<text text-anchor="middle" x="422" y="-520.41" font-family="Times,serif" font-size="14.00">If</text>
<text text-anchor="middle" x="422" y="-505.41" font-family="Times,serif" font-size="14.00">dhcp</text>
</g>
<!-- 146 -->
<g id="node23" class="node"><title>146</title>
<polygon fill="none" stroke="black" points="452.5,-446.24 297.5,-446.24 297.5,-408.24 452.5,-408.24 452.5,-446.24"/>
<text text-anchor="middle" x="375" y="-431.04" font-family="Times,serif" font-size="14.00">stackv4_dhcp</text>
<text text-anchor="middle" x="375" y="-416.04" font-family="Times,serif" font-size="14.00">Tcpip_stack_direct.Make</text>
</g>
<!-- 51&#45;&gt;146 -->
<g id="edge3" class="edge"><title>51&#45;&gt;146:n</title>
<path fill="none" stroke="black" stroke-dasharray="1,5" d="M400.426,-497.259C390.29,-486.903 379.674,-472.964 376.186,-457.555"/>
<polygon fill="black" stroke="black" points="379.619,-456.775 375,-447.24 372.665,-457.574 379.619,-456.775"/>
</g>
<!-- 155 -->
<g id="node24" class="node"><title>155</title>
<polygon fill="none" stroke="black" points="652.5,-453.74 497.5,-453.74 497.5,-400.74 652.5,-400.74 652.5,-453.74"/>
<text text-anchor="middle" x="575" y="-438.54" font-family="Times,serif" font-size="14.00">stackv4_ip</text>
<text text-anchor="middle" x="575" y="-423.54" font-family="Times,serif" font-size="14.00">Tcpip_stack_direct.Make</text>
<text text-anchor="middle" x="575" y="-408.54" font-family="Times,serif" font-size="14.00">ip, netmask, gateways</text>
</g>
<!-- 51&#45;&gt;155 -->
<g id="edge4" class="edge"><title>51&#45;&gt;155:n</title>
<path fill="none" stroke="black" stroke-width="2" stroke-dasharray="1,5" d="M451.5,-509.936C490.402,-501.706 555.78,-485.035 571.517,-463.337"/>
<polygon fill="black" stroke="black" stroke-width="2" points="574.878,-464.334 575,-453.74 568.298,-461.946 574.878,-464.334"/>
</g>
<!-- 52 -->
<g id="node11" class="node"><title>52</title>
<ellipse fill="none" stroke="black" cx="422" cy="-606.35" rx="27" ry="26.7407"/>
<text text-anchor="middle" x="422" y="-610.15" font-family="Times,serif" font-size="14.00">If</text>
<text text-anchor="middle" x="422" y="-595.15" font-family="Times,serif" font-size="14.00">net</text>
</g>
<!-- 52&#45;&gt;51 -->
<g id="edge5" class="edge"><title>52&#45;&gt;51:n</title>
<path fill="none" stroke="black" stroke-width="2" stroke-dasharray="1,5" d="M422,-579.462C422,-571.497 422,-562.497 422,-553.678"/>
<polygon fill="black" stroke="black" stroke-width="2" points="425.5,-553.48 422,-543.48 418.5,-553.48 425.5,-553.48"/>
</g>
<!-- 126 -->
<g id="node17" class="node"><title>126</title>
<polygon fill="none" stroke="black" points="723.5,-543.11 564.5,-543.11 564.5,-490.11 723.5,-490.11 723.5,-543.11"/>
<text text-anchor="middle" x="644" y="-527.91" font-family="Times,serif" font-size="14.00">stackv4_socket</text>
<text text-anchor="middle" x="644" y="-512.91" font-family="Times,serif" font-size="14.00">Tcpip_stack_socket.Make</text>
<text text-anchor="middle" x="644" y="-497.91" font-family="Times,serif" font-size="14.00">interfaces</text>
</g>
<!-- 52&#45;&gt;126 -->
<g id="edge6" class="edge"><title>52&#45;&gt;126:n</title>
<path fill="none" stroke="black" stroke-dasharray="1,5" d="M449.222,-603.507C503.408,-599.156 621.274,-586.035 641.132,-553.256"/>
<polygon fill="black" stroke="black" points="644.544,-554.061 644,-543.48 637.827,-552.091 644.544,-554.061"/>
</g>
<!-- 54 -->
<g id="node12" class="node"><title>54</title>
<polygon fill="none" stroke="black" points="78.5,-535.61 11.5,-535.61 11.5,-497.61 78.5,-497.61 78.5,-535.61"/>
<text text-anchor="middle" x="45" y="-520.41" font-family="Times,serif" font-size="14.00">argv_xen</text>
<text text-anchor="middle" x="45" y="-505.41" font-family="Times,serif" font-size="14.00">Bootvar</text>
</g>
<!-- 55 -->
<g id="node13" class="node"><title>55</title>
<polygon fill="none" stroke="black" points="167.5,-535.61 96.5,-535.61 96.5,-497.61 167.5,-497.61 167.5,-535.61"/>
<text text-anchor="middle" x="132" y="-520.41" font-family="Times,serif" font-size="14.00">argv_unix</text>
<text text-anchor="middle" x="132" y="-505.41" font-family="Times,serif" font-size="14.00">OS.Env</text>
</g>
<!-- 56 -->
<g id="node14" class="node"><title>56</title>
<ellipse fill="none" stroke="black" cx="119" cy="-606.35" rx="33.4697" ry="26.7407"/>
<text text-anchor="middle" x="119" y="-610.15" font-family="Times,serif" font-size="14.00">If</text>
<text text-anchor="middle" x="119" y="-595.15" font-family="Times,serif" font-size="14.00">target</text>
</g>
<!-- 56&#45;&gt;54 -->
<g id="edge7" class="edge"><title>56&#45;&gt;54:n</title>
<path fill="none" stroke="black" stroke-dasharray="1,5" d="M90.1778,-592.596C72.2405,-582.78 51.6041,-567.398 46.2966,-546.792"/>
<polygon fill="black" stroke="black" points="49.7353,-546.088 45,-536.61 42.7914,-546.972 49.7353,-546.088"/>
</g>
<!-- 56&#45;&gt;55 -->
<g id="edge8" class="edge"><title>56&#45;&gt;55:n</title>
<path fill="none" stroke="black" stroke-width="2" stroke-dasharray="1,5" d="M126.184,-579.779C128.486,-569.944 130.672,-558.336 131.571,-546.949"/>
<polygon fill="black" stroke="black" stroke-width="2" points="135.082,-546.747 132,-536.61 128.088,-546.456 135.082,-546.747"/>
</g>
<!-- 57 -->
<g id="node15" class="node"><title>57</title>
<polygon fill="none" stroke="black" points="162,-707.22 76,-707.22 76,-669.22 162,-669.22 162,-707.22"/>
<text text-anchor="middle" x="119" y="-692.02" font-family="Times,serif" font-size="14.00">bootvar</text>
<text text-anchor="middle" x="119" y="-677.02" font-family="Times,serif" font-size="14.00">Bootvar_gen</text>
</g>
<!-- 57&#45;&gt;56 -->
<g id="edge9" class="edge"><title>57&#45;&gt;56</title>
<path fill="none" stroke="black" stroke-dasharray="5,2" d="M119,-669.097C119,-661.488 119,-652.356 119,-643.477"/>
<polygon fill="black" stroke="black" points="122.5,-643.277 119,-633.277 115.5,-643.277 122.5,-643.277"/>
</g>
<!-- 58 -->
<g id="node16" class="node"><title>58</title>
<polygon fill="none" stroke="black" points="228,-796.22 122,-796.22 122,-743.22 228,-743.22 228,-796.22"/>
<text text-anchor="middle" x="175" y="-781.02" font-family="Times,serif" font-size="14.00">mirage</text>
<text text-anchor="middle" x="175" y="-766.02" font-family="Times,serif" font-size="14.00">Mirage_runtime</text>
<text text-anchor="middle" x="175" y="-751.02" font-family="Times,serif" font-size="14.00">target</text>
</g>
<!-- 58&#45;&gt;57 -->
<g id="edge10" class="edge"><title>58&#45;&gt;57</title>
<path fill="none" stroke="black" stroke-dasharray="5,2" d="M156.973,-743.128C150.834,-734.413 143.959,-724.654 137.764,-715.859"/>
<polygon fill="black" stroke="black" points="140.468,-713.619 131.848,-707.459 134.745,-717.65 140.468,-713.619"/>
</g>
<!-- 156 -->
<g id="node25" class="node"><title>156</title>
<polygon fill="none" stroke="black" points="284,-707.22 180,-707.22 180,-669.22 284,-669.22 284,-707.22"/>
<text text-anchor="middle" x="232" y="-692.02" font-family="Times,serif" font-size="14.00">f1</text>
<text text-anchor="middle" x="232" y="-677.02" font-family="Times,serif" font-size="14.00">Unikernel.Main</text>
</g>
<!-- 58&#45;&gt;156 -->
<g id="edge11" class="edge"><title>58&#45;&gt;156</title>
<path fill="none" stroke="black" stroke-dasharray="5,2" d="M193.349,-743.128C199.598,-734.413 206.595,-724.654 212.901,-715.859"/>
<polygon fill="black" stroke="black" points="215.941,-717.626 218.923,-707.459 210.252,-713.547 215.941,-717.626"/>
</g>
<!-- 126&#45;&gt;5 -->
<g id="edge12" class="edge"><title>126&#45;&gt;5</title>
<path fill="none" stroke="black" d="M564.328,-504.584C466.86,-490.658 311.801,-466.927 288,-453.74 252.636,-434.146 223.167,-397.725 204.936,-371.131"/>
<polygon fill="black" stroke="black" points="207.655,-368.901 199.192,-362.528 201.834,-372.788 207.655,-368.901"/>
</g>
<!-- 126&#45;&gt;7 -->
<g id="edge13" class="edge"><title>126&#45;&gt;7</title>
<path fill="none" stroke="black" stroke-dasharray="5,2" d="M665.802,-489.869C673.33,-480.981 681.873,-470.895 689.836,-461.493"/>
<polygon fill="black" stroke="black" points="692.561,-463.69 696.354,-453.797 687.22,-459.166 692.561,-463.69"/>
</g>
<!-- 126&#45;&gt;8 -->
<g id="edge14" class="edge"><title>126&#45;&gt;8</title>
<path fill="none" stroke="black" stroke-dasharray="5,2" d="M699.175,-490.104C722.837,-479.166 750.503,-466.376 774.519,-455.274"/>
<polygon fill="black" stroke="black" points="776.264,-458.324 783.872,-450.951 773.327,-451.97 776.264,-458.324"/>
</g>
<!-- 131 -->
<g id="node18" class="node"><title>131</title>
<polygon fill="none" stroke="black" points="701.5,-127 622.5,-127 622.5,-89 701.5,-89 701.5,-127"/>
<text text-anchor="middle" x="662" y="-111.8" font-family="Times,serif" font-size="14.00">ethif</text>
<text text-anchor="middle" x="662" y="-96.8" font-family="Times,serif" font-size="14.00">Ethif.Make</text>
</g>
<!-- 131&#45;&gt;17 -->
<g id="edge15" class="edge"><title>131&#45;&gt;17</title>
<path fill="none" stroke="black" d="M646.57,-88.9602C639.396,-80.5737 630.632,-70.3274 622.332,-60.6233"/>
<polygon fill="black" stroke="black" points="624.974,-58.3272 615.814,-53.0029 619.654,-62.8772 624.974,-58.3272"/>
</g>
<!-- 135 -->
<g id="node19" class="node"><title>135</title>
<polygon fill="none" stroke="black" points="784,-201 698,-201 698,-163 784,-163 784,-201"/>
<text text-anchor="middle" x="741" y="-185.8" font-family="Times,serif" font-size="14.00">arpv4</text>
<text text-anchor="middle" x="741" y="-170.8" font-family="Times,serif" font-size="14.00">Arpv4.Make</text>
</g>
<!-- 135&#45;&gt;13 -->
<g id="edge16" class="edge"><title>135&#45;&gt;13</title>
<path fill="none" stroke="black" d="M697.873,-170.143C644.071,-156.598 552.595,-133.569 498.582,-119.972"/>
<polygon fill="black" stroke="black" points="499.177,-116.512 488.625,-117.465 497.468,-123.301 499.177,-116.512"/>
</g>
<!-- 135&#45;&gt;24 -->
<g id="edge17" class="edge"><title>135&#45;&gt;24</title>
<path fill="none" stroke="black" d="M750.589,-162.831C754.832,-154.792 759.912,-145.167 764.596,-136.292"/>
<polygon fill="black" stroke="black" points="767.71,-137.891 769.282,-127.413 761.519,-134.623 767.71,-137.891"/>
</g>
<!-- 135&#45;&gt;131 -->
<g id="edge18" class="edge"><title>135&#45;&gt;131</title>
<path fill="none" stroke="black" d="M721.065,-162.831C711.522,-154.134 699.94,-143.578 689.569,-134.127"/>
<polygon fill="black" stroke="black" points="691.677,-131.312 681.929,-127.163 686.962,-136.486 691.677,-131.312"/>
</g>
<!-- 138 -->
<g id="node20" class="node"><title>138</title>
<polygon fill="none" stroke="black" points="917.5,-275 840.5,-275 840.5,-237 917.5,-237 917.5,-275"/>
<text text-anchor="middle" x="879" y="-259.8" font-family="Times,serif" font-size="14.00">ipv41</text>
<text text-anchor="middle" x="879" y="-244.8" font-family="Times,serif" font-size="14.00">Ipv4.Make</text>
</g>
<!-- 138&#45;&gt;131 -->
<g id="edge19" class="edge"><title>138&#45;&gt;131</title>
<path fill="none" stroke="black" d="M840.436,-254.555C797.722,-251.951 729.546,-241.201 689,-201 672.089,-184.233 665.647,-157.475 663.254,-137.128"/>
<polygon fill="black" stroke="black" points="666.739,-136.797 662.338,-127.16 659.768,-137.438 666.739,-136.797"/>
</g>
<!-- 138&#45;&gt;135 -->
<g id="edge20" class="edge"><title>138&#45;&gt;135</title>
<path fill="none" stroke="black" d="M844.177,-236.831C826.199,-227.452 804.08,-215.911 784.938,-205.924"/>
<polygon fill="black" stroke="black" points="786.297,-202.685 775.812,-201.163 783.059,-208.892 786.297,-202.685"/>
</g>
<!-- 140 -->
<g id="node21" class="node"><title>140</title>
<polygon fill="none" stroke="black" points="811.5,-356.87 736.5,-356.87 736.5,-318.87 811.5,-318.87 811.5,-356.87"/>
<text text-anchor="middle" x="774" y="-341.67" font-family="Times,serif" font-size="14.00">udp</text>
<text text-anchor="middle" x="774" y="-326.67" font-family="Times,serif" font-size="14.00">Udp.Make</text>
</g>
<!-- 140&#45;&gt;138 -->
<g id="edge21" class="edge"><title>140&#45;&gt;138</title>
<path fill="none" stroke="black" d="M797.826,-318.746C812.459,-307.615 831.38,-293.223 847.272,-281.134"/>
<polygon fill="black" stroke="black" points="849.428,-283.892 855.268,-275.052 845.19,-278.321 849.428,-283.892"/>
</g>
<!-- 145 -->
<g id="node22" class="node"><title>145</title>
<polygon fill="none" stroke="black" points="934,-356.87 830,-356.87 830,-318.87 934,-318.87 934,-356.87"/>
<text text-anchor="middle" x="882" y="-341.67" font-family="Times,serif" font-size="14.00">tcp</text>
<text text-anchor="middle" x="882" y="-326.67" font-family="Times,serif" font-size="14.00">Tcp.Flow.Make</text>
</g>
<!-- 145&#45;&gt;13 -->
<g id="edge22" class="edge"><title>145&#45;&gt;13</title>
<path fill="none" stroke="black" d="M843.558,-318.843C835.889,-315.816 827.793,-313.01 820,-311 749.212,-292.738 547.588,-323.627 493,-275 454.12,-240.366 450.751,-174.821 452.434,-137.287"/>
<polygon fill="black" stroke="black" points="455.943,-137.24 453.051,-127.048 448.955,-136.819 455.943,-137.24"/>
</g>
<!-- 145&#45;&gt;15 -->
<g id="edge23" class="edge"><title>145&#45;&gt;15</title>
<path fill="none" stroke="black" d="M842.09,-318.788C834.834,-315.913 827.263,-313.175 820,-311 735.012,-285.55 632.075,-269.609 575.784,-262.105"/>
<polygon fill="black" stroke="black" points="576.201,-258.63 565.831,-260.801 575.292,-265.57 576.201,-258.63"/>
</g>
<!-- 145&#45;&gt;24 -->
<g id="edge24" class="edge"><title>145&#45;&gt;24</title>
<path fill="none" stroke="black" d="M863.855,-318.756C853.038,-307.101 839.752,-291.156 831,-275 817.965,-250.939 797.326,-177.755 786.381,-137.056"/>
<polygon fill="black" stroke="black" points="789.716,-135.978 783.755,-127.22 782.953,-137.784 789.716,-135.978"/>
</g>
<!-- 145&#45;&gt;138 -->
<g id="edge25" class="edge"><title>145&#45;&gt;138</title>
<path fill="none" stroke="black" d="M881.319,-318.746C880.947,-308.841 880.478,-296.353 880.059,-285.203"/>
<polygon fill="black" stroke="black" points="883.551,-284.914 879.678,-275.052 876.556,-285.176 883.551,-284.914"/>
</g>
<!-- 146&#45;&gt;5 -->
<g id="edge26" class="edge"><title>146&#45;&gt;5</title>
<path fill="none" stroke="black" d="M330.051,-408.223C301.628,-396.508 264.292,-380.525 232,-364.74 228.234,-362.899 224.34,-360.907 220.48,-358.872"/>
<polygon fill="black" stroke="black" points="222.072,-355.754 211.607,-354.1 218.756,-361.919 222.072,-355.754"/>
</g>
<!-- 146&#45;&gt;13 -->
<g id="edge27" class="edge"><title>146&#45;&gt;13</title>
<path fill="none" stroke="black" d="M365.775,-407.934C344.323,-362.537 296.543,-242.696 346,-163 360.387,-139.816 388.015,-126.279 411.855,-118.557"/>
<polygon fill="black" stroke="black" points="412.872,-121.906 421.448,-115.686 410.865,-115.2 412.872,-121.906"/>
</g>
<!-- 146&#45;&gt;15 -->
<g id="edge28" class="edge"><title>146&#45;&gt;15</title>
<path fill="none" stroke="black" d="M378.182,-408.052C383.367,-383.29 395.809,-338.868 422,-311 441.08,-290.699 469.388,-277.142 492.771,-268.69"/>
<polygon fill="black" stroke="black" points="494.122,-271.926 502.449,-265.375 491.854,-265.304 494.122,-271.926"/>
</g>
<!-- 146&#45;&gt;17 -->
<g id="edge29" class="edge"><title>146&#45;&gt;17</title>
<path fill="none" stroke="black" d="M365.279,-408.044C349.978,-377.659 322,-314.268 322,-257 322,-257 322,-257 322,-181 322,-76.1311 477.245,-42.1047 553.165,-31.7346"/>
<polygon fill="black" stroke="black" points="553.857,-35.1745 563.327,-30.4235 552.961,-28.232 553.857,-35.1745"/>
</g>
<!-- 146&#45;&gt;131 -->
<g id="edge30" class="edge"><title>146&#45;&gt;131</title>
<path fill="none" stroke="black" d="M375.486,-407.896C376.701,-384.482 380.865,-343.16 395,-311 411.704,-272.994 421.09,-264.713 452,-237 501.861,-192.295 569.452,-154.322 614.332,-131.613"/>
<polygon fill="black" stroke="black" points="616.172,-134.606 623.549,-127.002 613.04,-128.346 616.172,-134.606"/>
</g>
<!-- 146&#45;&gt;135 -->
<g id="edge31" class="edge"><title>146&#45;&gt;135</title>
<path fill="none" stroke="black" d="M380.877,-408.011C394.199,-369.763 430.491,-281.045 493,-237 551.035,-196.107 634.252,-185.298 687.966,-182.903"/>
<polygon fill="black" stroke="black" points="688.103,-186.4 697.969,-182.539 687.848,-179.405 688.103,-186.4"/>
</g>
<!-- 146&#45;&gt;138 -->
<g id="edge32" class="edge"><title>146&#45;&gt;138</title>
<path fill="none" stroke="black" d="M418.724,-408.196C477.527,-384.282 585.623,-341.556 680,-311 730.706,-294.583 789.741,-278.997 830.266,-268.828"/>
<polygon fill="black" stroke="black" points="831.299,-272.178 840.154,-266.363 829.605,-265.386 831.299,-272.178"/>
</g>
<!-- 146&#45;&gt;140 -->
<g id="edge33" class="edge"><title>146&#45;&gt;140</title>
<path fill="none" stroke="black" d="M452.787,-408.591C464.581,-405.943 476.61,-403.257 488,-400.74 571.823,-382.216 669.6,-361.189 726.386,-349.035"/>
<polygon fill="black" stroke="black" points="727.453,-352.386 736.499,-346.871 725.988,-345.541 727.453,-352.386"/>
</g>
<!-- 146&#45;&gt;145 -->
<g id="edge34" class="edge"><title>146&#45;&gt;145</title>
<path fill="none" stroke="black" d="M449.223,-408.226C462.102,-405.463 475.403,-402.837 488,-400.74 634.405,-376.365 676.254,-401.698 820,-364.74 824.628,-363.55 829.362,-362.079 834.051,-360.446"/>
<polygon fill="black" stroke="black" points="835.409,-363.675 843.561,-356.907 832.968,-357.115 835.409,-363.675"/>
</g>
<!-- 155&#45;&gt;5 -->
<g id="edge35" class="edge"><title>155&#45;&gt;5</title>
<path fill="none" stroke="black" d="M497.482,-408.874C416.09,-390.64 291.163,-362.653 226.693,-348.21"/>
<polygon fill="black" stroke="black" points="227.404,-344.783 216.88,-346.012 225.873,-351.614 227.404,-344.783"/>
</g>
<!-- 155&#45;&gt;13 -->
<g id="edge36" class="edge"><title>155&#45;&gt;13</title>
<path fill="none" stroke="black" d="M550.547,-400.661C524.86,-372.278 485.294,-323.986 464,-275 444.481,-230.098 446.879,-171.812 450.718,-137.597"/>
<polygon fill="black" stroke="black" points="454.227,-137.738 451.989,-127.382 447.281,-136.873 454.227,-137.738"/>
</g>
<!-- 155&#45;&gt;15 -->
<g id="edge37" class="edge"><title>155&#45;&gt;15</title>
<path fill="none" stroke="black" d="M568.773,-400.536C561.246,-369.465 548.622,-317.355 540.833,-285.203"/>
<polygon fill="black" stroke="black" points="544.147,-284.019 538.391,-275.124 537.344,-285.667 544.147,-284.019"/>
</g>
<!-- 155&#45;&gt;17 -->
<g id="edge38" class="edge"><title>155&#45;&gt;17</title>
<path fill="none" stroke="black" d="M579.697,-400.536C585.323,-367.456 594,-308.15 594,-257 594,-257 594,-257 594,-181 594,-140.713 594,-94.4777 594,-63.3688"/>
<polygon fill="black" stroke="black" points="597.5,-63.0306 594,-53.0306 590.5,-63.0306 597.5,-63.0306"/>
</g>
<!-- 155&#45;&gt;131 -->
<g id="edge39" class="edge"><title>155&#45;&gt;131</title>
<path fill="none" stroke="black" d="M590.833,-400.666C596.934,-389.898 603.509,-377.032 608,-364.74 637.172,-284.894 652.566,-184.961 658.725,-137.095"/>
<polygon fill="black" stroke="black" points="662.2,-137.516 659.966,-127.16 655.254,-136.649 662.2,-137.516"/>
</g>
<!-- 155&#45;&gt;135 -->
<g id="edge40" class="edge"><title>155&#45;&gt;135</title>
<path fill="none" stroke="black" d="M609.601,-400.712C622.049,-390.441 635.578,-377.913 646,-364.74 684.868,-315.611 715.186,-248.159 730.345,-210.782"/>
<polygon fill="black" stroke="black" points="733.762,-211.663 734.213,-201.078 727.259,-209.071 733.762,-211.663"/>
</g>
<!-- 155&#45;&gt;138 -->
<g id="edge41" class="edge"><title>155&#45;&gt;138</title>
<path fill="none" stroke="black" d="M629.774,-400.643C648.005,-390.782 667.78,-378.536 684,-364.74 707.301,-344.921 702.08,-328.74 727,-311 757.982,-288.944 798.868,-275.092 830.431,-266.948"/>
<polygon fill="black" stroke="black" points="831.459,-270.299 840.327,-264.5 829.779,-263.503 831.459,-270.299"/>
</g>
<!-- 155&#45;&gt;140 -->
<g id="edge42" class="edge"><title>155&#45;&gt;140</title>
<path fill="none" stroke="black" d="M638.705,-400.652C664.703,-389.934 694.955,-377.109 722,-364.74 724.327,-363.676 726.703,-362.569 729.097,-361.437"/>
<polygon fill="black" stroke="black" points="730.846,-364.48 738.343,-356.993 727.814,-358.17 730.846,-364.48"/>
</g>
<!-- 155&#45;&gt;145 -->
<g id="edge43" class="edge"><title>155&#45;&gt;145</title>
<path fill="none" stroke="black" d="M652.752,-402.937C655.532,-402.183 658.288,-401.448 661,-400.74 731.104,-382.432 750.976,-386.773 820,-364.74 823.937,-363.483 827.973,-362.079 832.004,-360.591"/>
<polygon fill="black" stroke="black" points="833.272,-363.854 841.352,-357.001 830.762,-357.319 833.272,-363.854"/>
</g>
<!-- 156&#45;&gt;5 -->
<g id="edge44" class="edge"><title>156&#45;&gt;5</title>
<path fill="none" stroke="black" d="M229.539,-668.982C222.104,-613.876 199.775,-448.375 189.848,-374.803"/>
<polygon fill="black" stroke="black" points="193.283,-374.081 188.477,-364.639 186.345,-375.017 193.283,-374.081"/>
</g>
<!-- 156&#45;&gt;52 -->
<g id="edge45" class="edge"><title>156&#45;&gt;52</title>
<path fill="none" stroke="black" d="M275.114,-669.097C309.346,-654.706 356.544,-634.866 388.107,-621.598"/>
<polygon fill="black" stroke="black" points="389.507,-624.806 397.369,-617.704 386.794,-618.353 389.507,-624.806"/>
</g>
</g>
</svg>
