<?xml version="1.0" encoding="UTF-8" standalone="no"?>
<!DOCTYPE svg PUBLIC "-//W3C//DTD SVG 1.1//EN"
 "http://www.w3.org/Graphics/SVG/1.1/DTD/svg11.dtd">
<!-- Generated by graphviz version 2.38.0 (20140413.2041)
 -->
<!-- Title: G Pages: 1 -->
<svg width="696pt" height="625pt"
 viewBox="0.00 0.00 695.50 625.48" xmlns="http://www.w3.org/2000/svg" xmlns:xlink="http://www.w3.org/1999/xlink">
<g id="graph0" class="graph" transform="scale(1 1) rotate(0) translate(4 621.48)">
<title>G</title>
<polygon fill="white" stroke="none" points="-4,4 -4,-621.48 691.5,-621.48 691.5,4 -4,4"/>
<!-- 3 -->
<g id="node1" class="node"><title>3</title>
<polygon fill="none" stroke="black" points="142.5,-275 44.5,-275 44.5,-237 142.5,-237 142.5,-275"/>
<text text-anchor="middle" x="93.5" y="-259.8" font-family="Times,serif" font-size="14.00">console_xen_0</text>
<text text-anchor="middle" x="93.5" y="-244.8" font-family="Times,serif" font-size="14.00">Console_xen</text>
</g>
<!-- 4 -->
<g id="node2" class="node"><title>4</title>
<polygon fill="none" stroke="black" points="262.5,-275 160.5,-275 160.5,-237 262.5,-237 262.5,-275"/>
<text text-anchor="middle" x="211.5" y="-259.8" font-family="Times,serif" font-size="14.00">console_unix_0</text>
<text text-anchor="middle" x="211.5" y="-244.8" font-family="Times,serif" font-size="14.00">Console_unix</text>
</g>
<!-- 5 -->
<g id="node3" class="node"><title>5</title>
<ellipse fill="none" stroke="black" cx="210.5" cy="-337.87" rx="33.4697" ry="26.7407"/>
<text text-anchor="middle" x="210.5" y="-341.67" font-family="Times,serif" font-size="14.00">If</text>
<text text-anchor="middle" x="210.5" y="-326.67" font-family="Times,serif" font-size="14.00">target</text>
</g>
<!-- 5&#45;&gt;3 -->
<g id="edge1" class="edge"><title>5&#45;&gt;3:n</title>
<path fill="none" stroke="black" stroke-dasharray="1,5" d="M183.851,-321.627C177.536,-318.086 170.803,-314.368 164.5,-311 136.831,-296.214 102.406,-307.163 94.9617,-285.166"/>
<polygon fill="black" stroke="black" points="98.3877,-284.4 93.5,-275 91.4589,-285.396 98.3877,-284.4"/>
</g>
<!-- 5&#45;&gt;4 -->
<g id="edge2" class="edge"><title>5&#45;&gt;4:n</title>
<path fill="none" stroke="black" stroke-width="2" stroke-dasharray="1,5" d="M211.105,-310.983C211.256,-303.019 211.394,-294.019 211.46,-285.199"/>
<polygon fill="black" stroke="black" stroke-width="2" points="214.96,-285.014 211.5,-275 207.96,-284.986 214.96,-285.014"/>
</g>
<!-- 13 -->
<g id="node4" class="node"><title>13</title>
<polygon fill="none" stroke="black" points="444,-127 377,-127 377,-89 444,-89 444,-127"/>
<text text-anchor="middle" x="410.5" y="-111.8" font-family="Times,serif" font-size="14.00">time</text>
<text text-anchor="middle" x="410.5" y="-96.8" font-family="Times,serif" font-size="14.00">OS.Time</text>
</g>
<!-- 15 -->
<g id="node5" class="node"><title>15</title>
<polygon fill="none" stroke="black" points="502,-275 439,-275 439,-237 502,-237 502,-275"/>
<text text-anchor="middle" x="470.5" y="-259.8" font-family="Times,serif" font-size="14.00">random</text>
<text text-anchor="middle" x="470.5" y="-244.8" font-family="Times,serif" font-size="14.00">Random</text>
</g>
<!-- 17 -->
<g id="node6" class="node"><title>17</title>
<polygon fill="none" stroke="black" points="476,-53 415,-53 415,-0 476,-0 476,-53"/>
<text text-anchor="middle" x="445.5" y="-37.8" font-family="Times,serif" font-size="14.00">net1</text>
<text text-anchor="middle" x="445.5" y="-22.8" font-family="Times,serif" font-size="14.00">Netif</text>
<text text-anchor="middle" x="445.5" y="-7.8" font-family="Times,serif" font-size="14.00">network</text>
</g>
<!-- 24 -->
<g id="node7" class="node"><title>24</title>
<polygon fill="none" stroke="black" points="537.5,-127 483.5,-127 483.5,-89 537.5,-89 537.5,-127"/>
<text text-anchor="middle" x="510.5" y="-111.8" font-family="Times,serif" font-size="14.00">clock</text>
<text text-anchor="middle" x="510.5" y="-96.8" font-family="Times,serif" font-size="14.00">Clock</text>
</g>
<!-- 54 -->
<g id="node8" class="node"><title>54</title>
<polygon fill="none" stroke="black" points="67,-356.87 0,-356.87 0,-318.87 67,-318.87 67,-356.87"/>
<text text-anchor="middle" x="33.5" y="-341.67" font-family="Times,serif" font-size="14.00">argv_xen</text>
<text text-anchor="middle" x="33.5" y="-326.67" font-family="Times,serif" font-size="14.00">Bootvar</text>
</g>
<!-- 55 -->
<g id="node9" class="node"><title>55</title>
<polygon fill="none" stroke="black" points="156,-356.87 85,-356.87 85,-318.87 156,-318.87 156,-356.87"/>
<text text-anchor="middle" x="120.5" y="-341.67" font-family="Times,serif" font-size="14.00">argv_unix</text>
<text text-anchor="middle" x="120.5" y="-326.67" font-family="Times,serif" font-size="14.00">OS.Env</text>
</g>
<!-- 56 -->
<g id="node10" class="node"><title>56</title>
<ellipse fill="none" stroke="black" cx="116.5" cy="-427.61" rx="33.4697" ry="26.7407"/>
<text text-anchor="middle" x="116.5" y="-431.41" font-family="Times,serif" font-size="14.00">If</text>
<text text-anchor="middle" x="116.5" y="-416.41" font-family="Times,serif" font-size="14.00">target</text>
</g>
<!-- 56&#45;&gt;54 -->
<g id="edge3" class="edge"><title>56&#45;&gt;54:n</title>
<path fill="none" stroke="black" stroke-dasharray="1,5" d="M86.5351,-415.874C65.7325,-406.543 40.7295,-390.906 34.8037,-368.09"/>
<polygon fill="black" stroke="black" points="38.2373,-367.347 33.5,-357.87 31.2936,-368.233 38.2373,-367.347"/>
</g>
<!-- 56&#45;&gt;55 -->
<g id="edge4" class="edge"><title>56&#45;&gt;55:n</title>
<path fill="none" stroke="black" stroke-width="2" stroke-dasharray="1,5" d="M118.734,-400.518C119.435,-390.691 120.098,-379.181 120.37,-367.995"/>
<polygon fill="black" stroke="black" stroke-width="2" points="123.871,-367.914 120.5,-357.87 116.872,-367.824 123.871,-367.914"/>
</g>
<!-- 57 -->
<g id="node11" class="node"><title>57</title>
<polygon fill="none" stroke="black" points="159.5,-528.48 73.5,-528.48 73.5,-490.48 159.5,-490.48 159.5,-528.48"/>
<text text-anchor="middle" x="116.5" y="-513.28" font-family="Times,serif" font-size="14.00">bootvar</text>
<text text-anchor="middle" x="116.5" y="-498.28" font-family="Times,serif" font-size="14.00">Bootvar_gen</text>
</g>
<!-- 57&#45;&gt;56 -->
<g id="edge5" class="edge"><title>57&#45;&gt;56</title>
<path fill="none" stroke="black" stroke-dasharray="5,2" d="M116.5,-490.356C116.5,-482.748 116.5,-473.616 116.5,-464.737"/>
<polygon fill="black" stroke="black" points="120,-464.536 116.5,-454.537 113,-464.537 120,-464.536"/>
</g>
<!-- 58 -->
<g id="node12" class="node"><title>58</title>
<polygon fill="none" stroke="black" points="225.5,-617.48 119.5,-617.48 119.5,-564.48 225.5,-564.48 225.5,-617.48"/>
<text text-anchor="middle" x="172.5" y="-602.28" font-family="Times,serif" font-size="14.00">mirage</text>
<text text-anchor="middle" x="172.5" y="-587.28" font-family="Times,serif" font-size="14.00">Mirage_runtime</text>
<text text-anchor="middle" x="172.5" y="-572.28" font-family="Times,serif" font-size="14.00">target</text>
</g>
<!-- 58&#45;&gt;57 -->
<g id="edge6" class="edge"><title>58&#45;&gt;57</title>
<path fill="none" stroke="black" stroke-dasharray="5,2" d="M154.473,-564.388C148.334,-555.673 141.459,-545.914 135.264,-537.118"/>
<polygon fill="black" stroke="black" points="137.968,-534.879 129.348,-528.719 132.245,-538.91 137.968,-534.879"/>
</g>
<!-- 146 -->
<g id="node19" class="node"><title>146</title>
<polygon fill="none" stroke="black" points="281.5,-528.48 177.5,-528.48 177.5,-490.48 281.5,-490.48 281.5,-528.48"/>
<text text-anchor="middle" x="229.5" y="-513.28" font-family="Times,serif" font-size="14.00">f1</text>
<text text-anchor="middle" x="229.5" y="-498.28" font-family="Times,serif" font-size="14.00">Unikernel.Main</text>
</g>
<!-- 58&#45;&gt;146 -->
<g id="edge7" class="edge"><title>58&#45;&gt;146</title>
<path fill="none" stroke="black" stroke-dasharray="5,2" d="M190.849,-564.388C197.098,-555.673 204.095,-545.914 210.401,-537.118"/>
<polygon fill="black" stroke="black" points="213.441,-538.886 216.423,-528.719 207.752,-534.807 213.441,-538.886"/>
</g>
<!-- 126 -->
<g id="node13" class="node"><title>126</title>
<polygon fill="none" stroke="black" points="635,-127 556,-127 556,-89 635,-89 635,-127"/>
<text text-anchor="middle" x="595.5" y="-111.8" font-family="Times,serif" font-size="14.00">ethif</text>
<text text-anchor="middle" x="595.5" y="-96.8" font-family="Times,serif" font-size="14.00">Ethif.Make</text>
</g>
<!-- 126&#45;&gt;17 -->
<g id="edge8" class="edge"><title>126&#45;&gt;17</title>
<path fill="none" stroke="black" d="M561.463,-88.9602C538.875,-76.9889 509.138,-61.228 485.432,-48.664"/>
<polygon fill="black" stroke="black" points="486.816,-45.4365 476.341,-43.846 483.538,-51.6215 486.816,-45.4365"/>
</g>
<!-- 129 -->
<g id="node14" class="node"><title>129</title>
<polygon fill="none" stroke="black" points="683.5,-201 597.5,-201 597.5,-163 683.5,-163 683.5,-201"/>
<text text-anchor="middle" x="640.5" y="-185.8" font-family="Times,serif" font-size="14.00">arpv4</text>
<text text-anchor="middle" x="640.5" y="-170.8" font-family="Times,serif" font-size="14.00">Arpv4.Make</text>
</g>
<!-- 129&#45;&gt;13 -->
<g id="edge9" class="edge"><title>129&#45;&gt;13</title>
<path fill="none" stroke="black" d="M597.239,-167.457C556.245,-154.625 495.003,-135.453 453.948,-122.601"/>
<polygon fill="black" stroke="black" points="454.816,-119.205 444.227,-119.558 452.725,-125.886 454.816,-119.205"/>
</g>
<!-- 129&#45;&gt;24 -->
<g id="edge10" class="edge"><title>129&#45;&gt;24</title>
<path fill="none" stroke="black" d="M607.696,-162.831C588.995,-152.474 565.537,-139.482 546.352,-128.856"/>
<polygon fill="black" stroke="black" points="548.038,-125.789 537.594,-124.006 544.646,-131.913 548.038,-125.789"/>
</g>
<!-- 129&#45;&gt;126 -->
<g id="edge11" class="edge"><title>129&#45;&gt;126</title>
<path fill="none" stroke="black" d="M629.145,-162.831C624.067,-154.708 617.977,-144.964 612.382,-136.012"/>
<polygon fill="black" stroke="black" points="615.276,-134.038 607.008,-127.413 609.34,-137.748 615.276,-134.038"/>
</g>
<!-- 131 -->
<g id="node15" class="node"><title>131</title>
<polygon fill="none" stroke="black" points="674,-275 597,-275 597,-237 674,-237 674,-275"/>
<text text-anchor="middle" x="635.5" y="-259.8" font-family="Times,serif" font-size="14.00">ipv41</text>
<text text-anchor="middle" x="635.5" y="-244.8" font-family="Times,serif" font-size="14.00">Ipv4.Make</text>
</g>
<!-- 131&#45;&gt;126 -->
<g id="edge12" class="edge"><title>131&#45;&gt;126</title>
<path fill="none" stroke="black" d="M613.733,-236.816C604.028,-227.282 593.64,-214.735 588.5,-201 580.861,-180.589 583.319,-155.887 587.299,-137.221"/>
<polygon fill="black" stroke="black" points="590.757,-137.813 589.683,-127.273 583.949,-136.182 590.757,-137.813"/>
</g>
<!-- 131&#45;&gt;129 -->
<g id="edge13" class="edge"><title>131&#45;&gt;129</title>
<path fill="none" stroke="black" d="M636.762,-236.831C637.296,-229.131 637.932,-219.974 638.527,-211.417"/>
<polygon fill="black" stroke="black" points="642.02,-211.632 639.221,-201.413 635.037,-211.147 642.02,-211.632"/>
</g>
<!-- 132 -->
<g id="node16" class="node"><title>132</title>
<polygon fill="none" stroke="black" points="565,-356.87 490,-356.87 490,-318.87 565,-318.87 565,-356.87"/>
<text text-anchor="middle" x="527.5" y="-341.67" font-family="Times,serif" font-size="14.00">udp</text>
<text text-anchor="middle" x="527.5" y="-326.67" font-family="Times,serif" font-size="14.00">Udp.Make</text>
</g>
<!-- 132&#45;&gt;131 -->
<g id="edge14" class="edge"><title>132&#45;&gt;131</title>
<path fill="none" stroke="black" d="M552.007,-318.746C567.058,-307.615 586.519,-293.223 602.866,-281.134"/>
<polygon fill="black" stroke="black" points="605.131,-283.812 611.09,-275.052 600.969,-278.184 605.131,-283.812"/>
</g>
<!-- 136 -->
<g id="node17" class="node"><title>136</title>
<polygon fill="none" stroke="black" points="687.5,-356.87 583.5,-356.87 583.5,-318.87 687.5,-318.87 687.5,-356.87"/>
<text text-anchor="middle" x="635.5" y="-341.67" font-family="Times,serif" font-size="14.00">tcp</text>
<text text-anchor="middle" x="635.5" y="-326.67" font-family="Times,serif" font-size="14.00">Tcp.Flow.Make</text>
</g>
<!-- 136&#45;&gt;13 -->
<g id="edge15" class="edge"><title>136&#45;&gt;13</title>
<path fill="none" stroke="black" d="M594.474,-318.738C587.54,-315.966 580.364,-313.276 573.5,-311 510.882,-290.24 472.994,-324.601 429.5,-275 396.079,-236.887 399.432,-173.457 404.927,-137.033"/>
<polygon fill="black" stroke="black" points="408.393,-137.525 406.584,-127.086 401.489,-136.375 408.393,-137.525"/>
</g>
<!-- 136&#45;&gt;15 -->
<g id="edge16" class="edge"><title>136&#45;&gt;15</title>
<path fill="none" stroke="black" d="M598.059,-318.746C572.203,-306.23 537.828,-289.591 511.278,-276.739"/>
<polygon fill="black" stroke="black" points="512.766,-273.571 502.24,-272.364 509.716,-279.872 512.766,-273.571"/>
</g>
<!-- 136&#45;&gt;24 -->
<g id="edge17" class="edge"><title>136&#45;&gt;24</title>
<path fill="none" stroke="black" d="M619.643,-318.709C609.683,-306.781 596.976,-290.558 587.5,-275 559.344,-228.773 534.56,-170.551 521.131,-136.775"/>
<polygon fill="black" stroke="black" points="524.251,-135.145 517.336,-127.118 517.736,-137.705 524.251,-135.145"/>
</g>
<!-- 136&#45;&gt;131 -->
<g id="edge18" class="edge"><title>136&#45;&gt;131</title>
<path fill="none" stroke="black" d="M635.5,-318.746C635.5,-308.841 635.5,-296.353 635.5,-285.203"/>
<polygon fill="black" stroke="black" points="639,-285.052 635.5,-275.052 632,-285.052 639,-285.052"/>
</g>
<!-- 145 -->
<g id="node18" class="node"><title>145</title>
<polygon fill="none" stroke="black" points="444,-454.11 289,-454.11 289,-401.11 444,-401.11 444,-454.11"/>
<text text-anchor="middle" x="366.5" y="-438.91" font-family="Times,serif" font-size="14.00">stackv4_ip</text>
<text text-anchor="middle" x="366.5" y="-423.91" font-family="Times,serif" font-size="14.00">Tcpip_stack_direct.Make</text>
<text text-anchor="middle" x="366.5" y="-408.91" font-family="Times,serif" font-size="14.00">ip, netmask, gateways</text>
</g>
<!-- 145&#45;&gt;5 -->
<g id="edge19" class="edge"><title>145&#45;&gt;5</title>
<path fill="none" stroke="black" d="M320.959,-400.996C297.088,-387.57 268.281,-371.368 246.071,-358.876"/>
<polygon fill="black" stroke="black" points="247.728,-355.793 237.297,-353.941 244.297,-361.894 247.728,-355.793"/>
</g>
<!-- 145&#45;&gt;13 -->
<g id="edge20" class="edge"><title>145&#45;&gt;13</title>
<path fill="none" stroke="black" d="M359.184,-401.087C346.672,-352.607 325.54,-244.745 358.5,-163 362.823,-152.28 370.404,-142.498 378.464,-134.295"/>
<polygon fill="black" stroke="black" points="381.073,-136.644 385.92,-127.223 376.256,-131.565 381.073,-136.644"/>
</g>
<!-- 145&#45;&gt;15 -->
<g id="edge21" class="edge"><title>145&#45;&gt;15</title>
<path fill="none" stroke="black" d="M372.167,-401.022C378.469,-376.402 390.364,-338.903 409.5,-311 416.948,-300.14 427.048,-290.036 436.885,-281.575"/>
<polygon fill="black" stroke="black" points="439.176,-284.223 444.662,-275.159 434.721,-278.823 439.176,-284.223"/>
</g>
<!-- 145&#45;&gt;17 -->
<g id="edge22" class="edge"><title>145&#45;&gt;17</title>
<path fill="none" stroke="black" d="M359.368,-400.785C344.583,-341.908 316.061,-194.664 367.5,-89 375.766,-72.0209 391.233,-58.3145 406.227,-48.1877"/>
<polygon fill="black" stroke="black" points="408.386,-50.9628 414.943,-42.6412 404.628,-45.0571 408.386,-50.9628"/>
</g>
<!-- 145&#45;&gt;126 -->
<g id="edge23" class="edge"><title>145&#45;&gt;126</title>
<path fill="none" stroke="black" d="M369.677,-400.842C375.583,-361.901 391.316,-287.276 429.5,-237 463.386,-192.383 516.551,-155.137 553.551,-132.533"/>
<polygon fill="black" stroke="black" points="555.817,-135.255 562.588,-127.106 552.213,-129.254 555.817,-135.255"/>
</g>
<!-- 145&#45;&gt;129 -->
<g id="edge24" class="edge"><title>145&#45;&gt;129</title>
<path fill="none" stroke="black" d="M380.003,-401.063C396.093,-371.317 422.66,-324.526 437.5,-311 464.236,-286.632 479.417,-293.506 510.5,-275 545.505,-254.159 583.28,-226.831 609.041,-207.388"/>
<polygon fill="black" stroke="black" points="611.449,-209.954 617.295,-201.118 607.215,-204.38 611.449,-209.954"/>
</g>
<!-- 145&#45;&gt;131 -->
<g id="edge25" class="edge"><title>145&#45;&gt;131</title>
<path fill="none" stroke="black" d="M398.353,-400.963C411.002,-390.247 425.392,-377.367 437.5,-364.74 458.671,-342.661 455.526,-328.664 480.5,-311 512.304,-288.505 554.341,-274.636 586.613,-266.595"/>
<polygon fill="black" stroke="black" points="587.806,-269.909 596.722,-264.186 586.183,-263.1 587.806,-269.909"/>
</g>
<!-- 145&#45;&gt;132 -->
<g id="edge26" class="edge"><title>145&#45;&gt;132</title>
<path fill="none" stroke="black" d="M413.501,-400.996C436.26,-388.593 463.368,-373.82 485.439,-361.792"/>
<polygon fill="black" stroke="black" points="487.144,-364.849 494.25,-356.99 483.794,-358.702 487.144,-364.849"/>
</g>
<!-- 145&#45;&gt;136 -->
<g id="edge27" class="edge"><title>145&#45;&gt;136</title>
<path fill="none" stroke="black" d="M444.29,-405.451C483.378,-394.291 531.286,-379.809 573.5,-364.74 577.164,-363.432 580.927,-362.026 584.699,-360.569"/>
<polygon fill="black" stroke="black" points="586.035,-363.804 594.046,-356.87 583.46,-357.295 586.035,-363.804"/>
</g>
<!-- 146&#45;&gt;5 -->
<g id="edge28" class="edge"><title>146&#45;&gt;5</title>
<path fill="none" stroke="black" d="M227.467,-490.329C224.391,-462.872 218.494,-410.235 214.528,-374.83"/>
<polygon fill="black" stroke="black" points="218.006,-374.438 213.415,-364.89 211.05,-375.217 218.006,-374.438"/>
</g>
<!-- 146&#45;&gt;145 -->
<g id="edge29" class="edge"><title>146&#45;&gt;145</title>
<path fill="none" stroke="black" d="M260.587,-490.356C276.327,-481.18 295.869,-469.787 313.865,-459.296"/>
<polygon fill="black" stroke="black" points="315.675,-462.292 322.552,-454.232 312.15,-456.245 315.675,-462.292"/>
</g>
</g>
</svg>
