<?xml version="1.0" encoding="UTF-8" standalone="no"?>
<!DOCTYPE svg PUBLIC "-//W3C//DTD SVG 1.1//EN"
 "http://www.w3.org/Graphics/SVG/1.1/DTD/svg11.dtd">
<!-- Generated by graphviz version 2.38.0 (20140413.2041)
 -->
<!-- Title: G Pages: 1 -->
<svg width="695pt" height="625pt"
 viewBox="0.00 0.00 694.50 625.48" xmlns="http://www.w3.org/2000/svg" xmlns:xlink="http://www.w3.org/1999/xlink">
<g id="graph0" class="graph" transform="scale(1 1) rotate(0) translate(4 621.48)">
<title>G</title>
<polygon fill="white" stroke="none" points="-4,4 -4,-621.48 690.5,-621.48 690.5,4 -4,4"/>
<!-- 3 -->
<g id="node1" class="node"><title>3</title>
<polygon fill="none" stroke="black" points="141.5,-275 43.5,-275 43.5,-237 141.5,-237 141.5,-275"/>
<text text-anchor="middle" x="92.5" y="-259.8" font-family="Times,serif" font-size="14.00">console_xen_0</text>
<text text-anchor="middle" x="92.5" y="-244.8" font-family="Times,serif" font-size="14.00">Console_xen</text>
</g>
<!-- 4 -->
<g id="node2" class="node"><title>4</title>
<polygon fill="none" stroke="black" points="261.5,-275 159.5,-275 159.5,-237 261.5,-237 261.5,-275"/>
<text text-anchor="middle" x="210.5" y="-259.8" font-family="Times,serif" font-size="14.00">console_unix_0</text>
<text text-anchor="middle" x="210.5" y="-244.8" font-family="Times,serif" font-size="14.00">Console_unix</text>
</g>
<!-- 5 -->
<g id="node3" class="node"><title>5</title>
<ellipse fill="none" stroke="black" cx="209.5" cy="-337.87" rx="33.4697" ry="26.7407"/>
<text text-anchor="middle" x="209.5" y="-341.67" font-family="Times,serif" font-size="14.00">If</text>
<text text-anchor="middle" x="209.5" y="-326.67" font-family="Times,serif" font-size="14.00">target</text>
</g>
<!-- 5&#45;&gt;3 -->
<g id="edge1" class="edge"><title>5&#45;&gt;3:n</title>
<path fill="none" stroke="black" stroke-dasharray="1,5" d="M182.993,-321.291C176.952,-317.836 170.534,-314.239 164.5,-311 136.426,-295.928 101.247,-307.526 93.888,-284.969"/>
<polygon fill="black" stroke="black" points="97.3457,-284.422 92.5,-275 90.4126,-285.387 97.3457,-284.422"/>
</g>
<!-- 5&#45;&gt;4 -->
<g id="edge2" class="edge"><title>5&#45;&gt;4:n</title>
<path fill="none" stroke="black" stroke-width="2" stroke-dasharray="1,5" d="M210.105,-310.983C210.256,-303.019 210.394,-294.019 210.46,-285.199"/>
<polygon fill="black" stroke="black" stroke-width="2" points="213.96,-285.014 210.5,-275 206.96,-284.986 213.96,-285.014"/>
</g>
<!-- 13 -->
<g id="node4" class="node"><title>13</title>
<polygon fill="none" stroke="black" points="443,-127 376,-127 376,-89 443,-89 443,-127"/>
<text text-anchor="middle" x="409.5" y="-111.8" font-family="Times,serif" font-size="14.00">time</text>
<text text-anchor="middle" x="409.5" y="-96.8" font-family="Times,serif" font-size="14.00">OS.Time</text>
</g>
<!-- 15 -->
<g id="node5" class="node"><title>15</title>
<polygon fill="none" stroke="black" points="501,-275 438,-275 438,-237 501,-237 501,-275"/>
<text text-anchor="middle" x="469.5" y="-259.8" font-family="Times,serif" font-size="14.00">random</text>
<text text-anchor="middle" x="469.5" y="-244.8" font-family="Times,serif" font-size="14.00">Random</text>
</g>
<!-- 17 -->
<g id="node6" class="node"><title>17</title>
<polygon fill="none" stroke="black" points="475,-53 414,-53 414,-0 475,-0 475,-53"/>
<text text-anchor="middle" x="444.5" y="-37.8" font-family="Times,serif" font-size="14.00">net1</text>
<text text-anchor="middle" x="444.5" y="-22.8" font-family="Times,serif" font-size="14.00">Netif</text>
<text text-anchor="middle" x="444.5" y="-7.8" font-family="Times,serif" font-size="14.00">network</text>
</g>
<!-- 24 -->
<g id="node7" class="node"><title>24</title>
<polygon fill="none" stroke="black" points="536.5,-127 482.5,-127 482.5,-89 536.5,-89 536.5,-127"/>
<text text-anchor="middle" x="509.5" y="-111.8" font-family="Times,serif" font-size="14.00">clock</text>
<text text-anchor="middle" x="509.5" y="-96.8" font-family="Times,serif" font-size="14.00">Clock</text>
</g>
<!-- 54 -->
<g id="node8" class="node"><title>54</title>
<polygon fill="none" stroke="black" points="67,-356.87 0,-356.87 0,-318.87 67,-318.87 67,-356.87"/>
<text text-anchor="middle" x="33.5" y="-341.67" font-family="Times,serif" font-size="14.00">argv_xen</text>
<text text-anchor="middle" x="33.5" y="-326.67" font-family="Times,serif" font-size="14.00">Bootvar</text>
</g>
<!-- 55 -->
<g id="node9" class="node"><title>55</title>
<polygon fill="none" stroke="black" points="156,-356.87 85,-356.87 85,-318.87 156,-318.87 156,-356.87"/>
<text text-anchor="middle" x="120.5" y="-341.67" font-family="Times,serif" font-size="14.00">argv_unix</text>
<text text-anchor="middle" x="120.5" y="-326.67" font-family="Times,serif" font-size="14.00">OS.Env</text>
</g>
<!-- 56 -->
<g id="node10" class="node"><title>56</title>
<ellipse fill="none" stroke="black" cx="118.5" cy="-427.61" rx="33.4697" ry="26.7407"/>
<text text-anchor="middle" x="118.5" y="-431.41" font-family="Times,serif" font-size="14.00">If</text>
<text text-anchor="middle" x="118.5" y="-416.41" font-family="Times,serif" font-size="14.00">target</text>
</g>
<!-- 56&#45;&gt;54 -->
<g id="edge3" class="edge"><title>56&#45;&gt;54:n</title>
<path fill="none" stroke="black" stroke-dasharray="1,5" d="M88.2928,-416.283C66.8199,-407.06 40.7662,-391.357 34.7712,-367.975"/>
<polygon fill="black" stroke="black" points="38.2208,-367.355 33.5,-357.87 31.2756,-368.229 38.2208,-367.355"/>
</g>
<!-- 56&#45;&gt;55 -->
<g id="edge4" class="edge"><title>56&#45;&gt;55:n</title>
<path fill="none" stroke="black" stroke-width="2" stroke-dasharray="1,5" d="M119.617,-400.502C119.968,-390.673 120.299,-379.163 120.435,-367.985"/>
<polygon fill="black" stroke="black" stroke-width="2" points="123.936,-367.892 120.5,-357.87 116.936,-367.847 123.936,-367.892"/>
</g>
<!-- 57 -->
<g id="node11" class="node"><title>57</title>
<polygon fill="none" stroke="black" points="151,-528.48 86,-528.48 86,-490.48 151,-490.48 151,-528.48"/>
<text text-anchor="middle" x="118.5" y="-513.28" font-family="Times,serif" font-size="14.00">key</text>
<text text-anchor="middle" x="118.5" y="-498.28" font-family="Times,serif" font-size="14.00">Key_gen</text>
</g>
<!-- 57&#45;&gt;56 -->
<g id="edge5" class="edge"><title>57&#45;&gt;56</title>
<path fill="none" stroke="black" stroke-dasharray="5,2" d="M118.5,-490.356C118.5,-482.748 118.5,-473.616 118.5,-464.737"/>
<polygon fill="black" stroke="black" points="122,-464.536 118.5,-454.537 115,-464.537 122,-464.536"/>
</g>
<!-- 58 -->
<g id="node12" class="node"><title>58</title>
<polygon fill="none" stroke="black" points="222.5,-617.48 116.5,-617.48 116.5,-564.48 222.5,-564.48 222.5,-617.48"/>
<text text-anchor="middle" x="169.5" y="-602.28" font-family="Times,serif" font-size="14.00">mirage</text>
<text text-anchor="middle" x="169.5" y="-587.28" font-family="Times,serif" font-size="14.00">Mirage_runtime</text>
<text text-anchor="middle" x="169.5" y="-572.28" font-family="Times,serif" font-size="14.00">target, unix, xen</text>
</g>
<!-- 58&#45;&gt;57 -->
<g id="edge6" class="edge"><title>58&#45;&gt;57</title>
<path fill="none" stroke="black" stroke-dasharray="5,2" d="M153.083,-564.388C147.55,-555.764 141.361,-546.117 135.765,-537.394"/>
<polygon fill="black" stroke="black" points="138.546,-535.246 130.2,-528.719 132.654,-539.026 138.546,-535.246"/>
</g>
<!-- 102 -->
<g id="node19" class="node"><title>102</title>
<polygon fill="none" stroke="black" points="273.5,-528.48 169.5,-528.48 169.5,-490.48 273.5,-490.48 273.5,-528.48"/>
<text text-anchor="middle" x="221.5" y="-513.28" font-family="Times,serif" font-size="14.00">f1</text>
<text text-anchor="middle" x="221.5" y="-498.28" font-family="Times,serif" font-size="14.00">Unikernel.Main</text>
</g>
<!-- 58&#45;&gt;102 -->
<g id="edge7" class="edge"><title>58&#45;&gt;102</title>
<path fill="none" stroke="black" stroke-dasharray="5,2" d="M186.239,-564.388C191.94,-555.673 198.323,-545.914 204.076,-537.118"/>
<polygon fill="black" stroke="black" points="207.025,-539.004 209.57,-528.719 201.167,-535.172 207.025,-539.004"/>
</g>
<!-- 82 -->
<g id="node13" class="node"><title>82</title>
<polygon fill="none" stroke="black" points="634,-127 555,-127 555,-89 634,-89 634,-127"/>
<text text-anchor="middle" x="594.5" y="-111.8" font-family="Times,serif" font-size="14.00">ethif</text>
<text text-anchor="middle" x="594.5" y="-96.8" font-family="Times,serif" font-size="14.00">Ethif.Make</text>
</g>
<!-- 82&#45;&gt;17 -->
<g id="edge8" class="edge"><title>82&#45;&gt;17</title>
<path fill="none" stroke="black" d="M560.463,-88.9602C537.875,-76.9889 508.138,-61.228 484.432,-48.664"/>
<polygon fill="black" stroke="black" points="485.816,-45.4365 475.341,-43.846 482.538,-51.6215 485.816,-45.4365"/>
</g>
<!-- 85 -->
<g id="node14" class="node"><title>85</title>
<polygon fill="none" stroke="black" points="682.5,-201 596.5,-201 596.5,-163 682.5,-163 682.5,-201"/>
<text text-anchor="middle" x="639.5" y="-185.8" font-family="Times,serif" font-size="14.00">arpv4</text>
<text text-anchor="middle" x="639.5" y="-170.8" font-family="Times,serif" font-size="14.00">Arpv4.Make</text>
</g>
<!-- 85&#45;&gt;13 -->
<g id="edge9" class="edge"><title>85&#45;&gt;13</title>
<path fill="none" stroke="black" d="M596.239,-167.457C555.245,-154.625 494.003,-135.453 452.948,-122.601"/>
<polygon fill="black" stroke="black" points="453.816,-119.205 443.227,-119.558 451.725,-125.886 453.816,-119.205"/>
</g>
<!-- 85&#45;&gt;24 -->
<g id="edge10" class="edge"><title>85&#45;&gt;24</title>
<path fill="none" stroke="black" d="M606.696,-162.831C587.995,-152.474 564.537,-139.482 545.352,-128.856"/>
<polygon fill="black" stroke="black" points="547.038,-125.789 536.594,-124.006 543.646,-131.913 547.038,-125.789"/>
</g>
<!-- 85&#45;&gt;82 -->
<g id="edge11" class="edge"><title>85&#45;&gt;82</title>
<path fill="none" stroke="black" d="M628.145,-162.831C623.067,-154.708 616.977,-144.964 611.382,-136.012"/>
<polygon fill="black" stroke="black" points="614.276,-134.038 606.008,-127.413 608.34,-137.748 614.276,-134.038"/>
</g>
<!-- 87 -->
<g id="node15" class="node"><title>87</title>
<polygon fill="none" stroke="black" points="673,-275 596,-275 596,-237 673,-237 673,-275"/>
<text text-anchor="middle" x="634.5" y="-259.8" font-family="Times,serif" font-size="14.00">ipv41</text>
<text text-anchor="middle" x="634.5" y="-244.8" font-family="Times,serif" font-size="14.00">Ipv4.Make</text>
</g>
<!-- 87&#45;&gt;82 -->
<g id="edge12" class="edge"><title>87&#45;&gt;82</title>
<path fill="none" stroke="black" d="M612.733,-236.816C603.028,-227.282 592.64,-214.735 587.5,-201 579.861,-180.589 582.319,-155.887 586.299,-137.221"/>
<polygon fill="black" stroke="black" points="589.757,-137.813 588.683,-127.273 582.949,-136.182 589.757,-137.813"/>
</g>
<!-- 87&#45;&gt;85 -->
<g id="edge13" class="edge"><title>87&#45;&gt;85</title>
<path fill="none" stroke="black" d="M635.762,-236.831C636.296,-229.131 636.932,-219.974 637.527,-211.417"/>
<polygon fill="black" stroke="black" points="641.02,-211.632 638.221,-201.413 634.037,-211.147 641.02,-211.632"/>
</g>
<!-- 88 -->
<g id="node16" class="node"><title>88</title>
<polygon fill="none" stroke="black" points="564,-356.87 489,-356.87 489,-318.87 564,-318.87 564,-356.87"/>
<text text-anchor="middle" x="526.5" y="-341.67" font-family="Times,serif" font-size="14.00">udp</text>
<text text-anchor="middle" x="526.5" y="-326.67" font-family="Times,serif" font-size="14.00">Udp.Make</text>
</g>
<!-- 88&#45;&gt;87 -->
<g id="edge14" class="edge"><title>88&#45;&gt;87</title>
<path fill="none" stroke="black" d="M551.007,-318.746C566.058,-307.615 585.519,-293.223 601.866,-281.134"/>
<polygon fill="black" stroke="black" points="604.131,-283.812 610.09,-275.052 599.969,-278.184 604.131,-283.812"/>
</g>
<!-- 92 -->
<g id="node17" class="node"><title>92</title>
<polygon fill="none" stroke="black" points="686.5,-356.87 582.5,-356.87 582.5,-318.87 686.5,-318.87 686.5,-356.87"/>
<text text-anchor="middle" x="634.5" y="-341.67" font-family="Times,serif" font-size="14.00">tcp</text>
<text text-anchor="middle" x="634.5" y="-326.67" font-family="Times,serif" font-size="14.00">Tcp.Flow.Make</text>
</g>
<!-- 92&#45;&gt;13 -->
<g id="edge15" class="edge"><title>92&#45;&gt;13</title>
<path fill="none" stroke="black" d="M593.474,-318.738C586.54,-315.966 579.364,-313.276 572.5,-311 509.882,-290.24 471.994,-324.601 428.5,-275 395.079,-236.887 398.432,-173.457 403.927,-137.033"/>
<polygon fill="black" stroke="black" points="407.393,-137.525 405.584,-127.086 400.489,-136.375 407.393,-137.525"/>
</g>
<!-- 92&#45;&gt;15 -->
<g id="edge16" class="edge"><title>92&#45;&gt;15</title>
<path fill="none" stroke="black" d="M597.059,-318.746C571.203,-306.23 536.828,-289.591 510.278,-276.739"/>
<polygon fill="black" stroke="black" points="511.766,-273.571 501.24,-272.364 508.716,-279.872 511.766,-273.571"/>
</g>
<!-- 92&#45;&gt;24 -->
<g id="edge17" class="edge"><title>92&#45;&gt;24</title>
<path fill="none" stroke="black" d="M618.643,-318.709C608.683,-306.781 595.976,-290.558 586.5,-275 558.344,-228.773 533.56,-170.551 520.131,-136.775"/>
<polygon fill="black" stroke="black" points="523.251,-135.145 516.336,-127.118 516.736,-137.705 523.251,-135.145"/>
</g>
<!-- 92&#45;&gt;87 -->
<g id="edge18" class="edge"><title>92&#45;&gt;87</title>
<path fill="none" stroke="black" d="M634.5,-318.746C634.5,-308.841 634.5,-296.353 634.5,-285.203"/>
<polygon fill="black" stroke="black" points="638,-285.052 634.5,-275.052 631,-285.052 638,-285.052"/>
</g>
<!-- 101 -->
<g id="node18" class="node"><title>101</title>
<polygon fill="none" stroke="black" points="443,-454.11 288,-454.11 288,-401.11 443,-401.11 443,-454.11"/>
<text text-anchor="middle" x="365.5" y="-438.91" font-family="Times,serif" font-size="14.00">stackv4_ip</text>
<text text-anchor="middle" x="365.5" y="-423.91" font-family="Times,serif" font-size="14.00">Tcpip_stack_direct.Make</text>
<text text-anchor="middle" x="365.5" y="-408.91" font-family="Times,serif" font-size="14.00">ip, netmask, gateways</text>
</g>
<!-- 101&#45;&gt;5 -->
<g id="edge19" class="edge"><title>101&#45;&gt;5</title>
<path fill="none" stroke="black" d="M319.959,-400.996C296.088,-387.57 267.281,-371.368 245.071,-358.876"/>
<polygon fill="black" stroke="black" points="246.728,-355.793 236.297,-353.941 243.297,-361.894 246.728,-355.793"/>
</g>
<!-- 101&#45;&gt;13 -->
<g id="edge20" class="edge"><title>101&#45;&gt;13</title>
<path fill="none" stroke="black" d="M358.184,-401.087C345.672,-352.607 324.54,-244.745 357.5,-163 361.823,-152.28 369.404,-142.498 377.464,-134.295"/>
<polygon fill="black" stroke="black" points="380.073,-136.644 384.92,-127.223 375.256,-131.565 380.073,-136.644"/>
</g>
<!-- 101&#45;&gt;15 -->
<g id="edge21" class="edge"><title>101&#45;&gt;15</title>
<path fill="none" stroke="black" d="M371.167,-401.022C377.469,-376.402 389.364,-338.903 408.5,-311 415.948,-300.14 426.048,-290.036 435.885,-281.575"/>
<polygon fill="black" stroke="black" points="438.176,-284.223 443.662,-275.159 433.721,-278.823 438.176,-284.223"/>
</g>
<!-- 101&#45;&gt;17 -->
<g id="edge22" class="edge"><title>101&#45;&gt;17</title>
<path fill="none" stroke="black" d="M358.368,-400.785C343.583,-341.908 315.061,-194.664 366.5,-89 374.766,-72.0209 390.233,-58.3145 405.227,-48.1877"/>
<polygon fill="black" stroke="black" points="407.386,-50.9628 413.943,-42.6412 403.628,-45.0571 407.386,-50.9628"/>
</g>
<!-- 101&#45;&gt;82 -->
<g id="edge23" class="edge"><title>101&#45;&gt;82</title>
<path fill="none" stroke="black" d="M368.677,-400.842C374.583,-361.901 390.316,-287.276 428.5,-237 462.386,-192.383 515.551,-155.137 552.551,-132.533"/>
<polygon fill="black" stroke="black" points="554.817,-135.255 561.588,-127.106 551.213,-129.254 554.817,-135.255"/>
</g>
<!-- 101&#45;&gt;85 -->
<g id="edge24" class="edge"><title>101&#45;&gt;85</title>
<path fill="none" stroke="black" d="M379.003,-401.063C395.093,-371.317 421.66,-324.526 436.5,-311 463.236,-286.632 478.417,-293.506 509.5,-275 544.505,-254.159 582.28,-226.831 608.041,-207.388"/>
<polygon fill="black" stroke="black" points="610.449,-209.954 616.295,-201.118 606.215,-204.38 610.449,-209.954"/>
</g>
<!-- 101&#45;&gt;87 -->
<g id="edge25" class="edge"><title>101&#45;&gt;87</title>
<path fill="none" stroke="black" d="M397.353,-400.963C410.002,-390.247 424.392,-377.367 436.5,-364.74 457.671,-342.661 454.526,-328.664 479.5,-311 511.304,-288.505 553.341,-274.636 585.613,-266.595"/>
<polygon fill="black" stroke="black" points="586.806,-269.909 595.722,-264.186 585.183,-263.1 586.806,-269.909"/>
</g>
<!-- 101&#45;&gt;88 -->
<g id="edge26" class="edge"><title>101&#45;&gt;88</title>
<path fill="none" stroke="black" d="M412.501,-400.996C435.26,-388.593 462.368,-373.82 484.439,-361.792"/>
<polygon fill="black" stroke="black" points="486.144,-364.849 493.25,-356.99 482.794,-358.702 486.144,-364.849"/>
</g>
<!-- 101&#45;&gt;92 -->
<g id="edge27" class="edge"><title>101&#45;&gt;92</title>
<path fill="none" stroke="black" d="M443.29,-405.451C482.378,-394.291 530.286,-379.809 572.5,-364.74 576.164,-363.432 579.927,-362.026 583.699,-360.569"/>
<polygon fill="black" stroke="black" points="585.035,-363.804 593.046,-356.87 582.46,-357.295 585.035,-363.804"/>
</g>
<!-- 102&#45;&gt;5 -->
<g id="edge28" class="edge"><title>102&#45;&gt;5</title>
<path fill="none" stroke="black" d="M220.216,-490.329C218.282,-462.99 214.581,-410.686 212.077,-375.287"/>
<polygon fill="black" stroke="black" points="215.538,-374.618 211.341,-364.89 208.555,-375.112 215.538,-374.618"/>
</g>
<!-- 102&#45;&gt;101 -->
<g id="edge29" class="edge"><title>102&#45;&gt;101</title>
<path fill="none" stroke="black" d="M254.176,-490.356C270.795,-481.138 291.447,-469.684 310.433,-459.153"/>
<polygon fill="black" stroke="black" points="312.259,-462.143 319.306,-454.232 308.864,-456.021 312.259,-462.143"/>
</g>
</g>
</svg>
