<svg width="37" height="36" viewBox="0 0 37 36" fill="none" xmlns="http://www.w3.org/2000/svg">
<path d="M34.0835 4.5H2.5835C1.98676 4.5 1.41446 4.73705 0.992506 5.15901C0.570549 5.58097 0.333496 6.15326 0.333496 6.75V29.25C0.333496 29.8467 0.570549 30.419 0.992506 30.841C1.41446 31.2629 1.98676 31.5 2.5835 31.5H34.0835C34.6802 31.5 35.2525 31.2629 35.6745 30.841C36.0964 30.419 36.3335 29.8467 36.3335 29.25V6.75C36.3335 6.15326 36.0964 5.58097 35.6745 5.15901C35.2525 4.73705 34.6802 4.5 34.0835 4.5ZM32.351 29.25H4.451L12.326 21.105L10.706 19.5413L2.5835 27.945V8.46L16.5672 22.3762C16.9888 22.7953 17.5591 23.0305 18.1535 23.0305C18.7479 23.0305 19.3182 22.7953 19.7397 22.3762L34.0835 8.11125V27.7987L25.8035 19.5188L24.2172 21.105L32.351 29.25ZM4.05725 6.75H32.261L18.1535 20.7787L4.05725 6.75Z" fill="#4D4D4D"/>
</svg>
