<svg width="36" height="36" viewBox="0 0 36 36" fill="none" xmlns="http://www.w3.org/2000/svg">
<path fill-rule="evenodd" clip-rule="evenodd" d="M18 0.333496C8.055 0.333496 0 8.3885 0 18.3335C0 26.2985 5.1525 33.026 12.3075 35.411C13.2075 35.5685 13.545 35.0285 13.545 34.556C13.545 34.1285 13.5225 32.711 13.5225 31.2035C9 32.036 7.83 30.101 7.47 29.0885C7.2675 28.571 6.39 26.9735 5.625 26.546C4.995 26.2085 4.095 25.376 5.6025 25.3535C7.02 25.331 8.0325 26.6585 8.37 27.1985C9.99 29.921 12.5775 29.156 13.6125 28.6835C13.77 27.5135 14.2425 26.726 14.76 26.276C10.755 25.826 6.57 24.2735 6.57 17.3885C6.57 15.431 7.2675 13.811 8.415 12.551C8.235 12.101 7.605 10.256 8.595 7.781C8.595 7.781 10.1025 7.3085 13.545 9.626C14.985 9.221 16.515 9.0185 18.045 9.0185C19.575 9.0185 21.105 9.221 22.545 9.626C25.9875 7.286 27.495 7.781 27.495 7.781C28.485 10.256 27.855 12.101 27.675 12.551C28.8225 13.811 29.52 15.4085 29.52 17.3885C29.52 24.296 25.3125 25.826 21.3075 26.276C21.96 26.8385 22.5225 27.9185 22.5225 29.606C22.5225 32.0135 22.5 33.9485 22.5 34.556C22.5 35.0285 22.8375 35.591 23.7375 35.411C27.3108 34.2046 30.4158 31.908 32.6155 28.8445C34.8152 25.7811 35.9989 22.1049 36 18.3335C36 8.3885 27.945 0.333496 18 0.333496Z" fill="#F3F3F3"/>
</svg>
