<svg width="37" height="37" viewBox="0 0 37 37" fill="none" xmlns="http://www.w3.org/2000/svg">
<g clip-path="url(#clip0_266_1758)">
<path d="M3.45283 16.245V0.197632H10.6244V2.98722C12.0409 0.489719 14.072 0.0614521 16.1166 0.25348C18.9133 0.516118 20.4394 1.7115 21.7411 4.55567V2.51496C22.4392 0.0387435 27.0341 -0.618453 29.9722 1.23867C31.763 2.37055 32.5369 4.71278 32.6031 7.34419V16.1667C30.4825 15.136 27.6591 15.0196 25.3533 15.9318V8.68569C25.408 7.38982 23.713 7.13087 21.9233 7.55063V16.245H14.7029V8.68562C14.6836 7.14379 11.6223 7.19176 10.5709 7.90999V16.245H3.45283ZM9.32963 17.2327H0.666504V23.471H9.32963V17.2327ZM23.5214 17.2327H10.374V35.2126H18.1137V24.8218H23.5214V17.2327ZM9.32963 24.5916H0.666504V35.2125H9.32963V24.5916ZM27.0528 28.507C26.0354 26.5662 25.7829 24.1214 25.7829 24.1214C29.483 27.5658 35.0058 27.2637 37 22.0081C34.6331 16.5102 28.9116 14.9261 24.4437 17.3581V25.762H19.4435C19.4127 28.9629 20.6914 32.0297 22.9429 33.9569C26.3778 36.8969 31.7978 37.2635 35.5269 32.7953C35.5269 32.7953 34.5031 32.097 31.936 31.7304C28.8068 31.2833 27.9974 30.309 27.0528 28.507ZM31.7955 19.4222C32.8871 18.6944 34.9222 22.3466 33.7092 22.8992C32.631 23.4248 31.0382 19.927 31.7955 19.4222ZM29.4101 20.7024C30.5017 19.9747 32.5367 23.6269 31.3238 24.1795C30.2457 24.7051 28.6527 21.2073 29.4101 20.7024Z" fill="#F96359"/>
</g>
<defs>
<clipPath id="clip0_266_1758">
<rect width="36.3335" height="36.3335" fill="white" transform="translate(0.666504)"/>
</clipPath>
</defs>
</svg>
