<svg width="33" height="37" viewBox="0 0 33 37" fill="none" xmlns="http://www.w3.org/2000/svg">
<path fill-rule="evenodd" clip-rule="evenodd" d="M32.3314 34.3335C32.3314 16.6877 17.9771 2.3335 0.333496 2.3335V6.59988C15.6242 6.59988 28.065 19.0406 28.065 34.3335H32.3314ZM17.399 34.3326H21.6654C21.6654 22.568 12.0959 12.9985 0.333496 12.9985V17.2649C9.743 17.2649 17.399 24.9209 17.399 34.3326ZM8.86626 30.0647C8.86626 32.421 6.95614 34.3311 4.59988 34.3311C2.24362 34.3311 0.333496 32.421 0.333496 30.0647C0.333496 27.7085 2.24362 25.7983 4.59988 25.7983C6.95614 25.7983 8.86626 27.7085 8.86626 30.0647Z" fill="#7B7B7B"/>
</svg>
