<svg width="37" height="37" viewBox="0 0 37 37" fill="none" xmlns="http://www.w3.org/2000/svg">
<g clip-path="url(#clip0_266_1797)">
<path d="M36.1308 7.73887C34.8783 8.29387 33.5328 8.66887 32.1183 8.83837C33.5778 7.96506 34.6697 6.59057 35.1903 4.97137C33.819 5.78585 32.3183 6.35916 30.7533 6.66637C29.7008 5.54267 28.3069 4.79786 26.7878 4.54758C25.2687 4.2973 23.7094 4.55555 22.3521 5.28225C20.9948 6.00894 19.9154 7.16341 19.2815 8.56642C18.6476 9.96944 18.4946 11.5425 18.8463 13.0414C16.0678 12.9019 13.3497 12.1797 10.8684 10.9217C8.38711 9.66376 6.19804 7.89811 4.44328 5.73937C3.84328 6.77437 3.49828 7.97437 3.49828 9.25237C3.49761 10.4029 3.78093 11.5357 4.3231 12.5505C4.86526 13.5652 5.64952 14.4304 6.60628 15.0694C5.49669 15.0341 4.41159 14.7342 3.44128 14.1949V14.2849C3.44117 15.8985 3.99933 17.4624 5.02105 18.7114C6.04278 19.9603 7.46513 20.8173 9.04678 21.1369C8.01745 21.4154 6.93828 21.4565 5.89078 21.2569C6.33702 22.6453 7.20627 23.8594 8.37683 24.7293C9.54739 25.5991 10.9607 26.0811 12.4188 26.1079C9.94353 28.051 6.88661 29.105 3.73978 29.1004C3.18235 29.1005 2.62539 29.068 2.07178 29.0029C5.26599 31.0566 8.98429 32.1466 12.7818 32.1424C25.6368 32.1424 32.6643 21.4954 32.6643 12.2614C32.6643 11.9614 32.6568 11.6584 32.6433 11.3584C34.0102 10.3698 35.1901 9.14571 36.1278 7.74337L36.1308 7.73887Z" fill="#6EDAF4"/>
</g>
<defs>
<clipPath id="clip0_266_1797">
<rect width="36" height="36" fill="white" transform="translate(0.666504 0.333496)"/>
</clipPath>
</defs>
</svg>
