<svg width="36" height="36" viewBox="0 0 36 36" fill="none" xmlns="http://www.w3.org/2000/svg">
<path d="M12.5 20C12.5 22.21 10.71 24 8.5 24C6.29 24 4.5 22.21 4.5 20C4.5 17.79 6.29 16 8.5 16C10.71 16 12.5 17.79 12.5 20Z" fill="#388372"/>
<path fill-rule="evenodd" clip-rule="evenodd" d="M8.5 22C9.03043 22 9.53914 21.7893 9.91421 21.4142C10.2893 21.0391 10.5 20.5304 10.5 20C10.5 19.4696 10.2893 18.9609 9.91421 18.5858C9.53914 18.2107 9.03043 18 8.5 18C7.96957 18 7.46086 18.2107 7.08579 18.5858C6.71071 18.9609 6.5 19.4696 6.5 20C6.5 20.5304 6.71071 21.0391 7.08579 21.4142C7.46086 21.7893 7.96957 22 8.5 22ZM8.5 24C10.71 24 12.5 22.21 12.5 20C12.5 17.79 10.71 16 8.5 16C6.29 16 4.5 17.79 4.5 20C4.5 22.21 6.29 24 8.5 24Z" fill="#388372"/>
<path d="M0 30.545C0 27.523 5.663 26 8.5 26C11.337 26 17 27.523 17 30.545V36H0V30.545Z" fill="#388372"/>
<path fill-rule="evenodd" clip-rule="evenodd" d="M2.334 29.983C2.018 30.295 2 30.474 2 30.546V34H15V30.545C15 30.475 14.982 30.295 14.666 29.983C14.332 29.654 13.781 29.301 13.026 28.978C11.506 28.327 9.65 28 8.5 28C7.35 28 5.493 28.327 3.974 28.978C3.219 29.301 2.668 29.654 2.334 29.983ZM8.5 26C5.663 26 0 27.523 0 30.545V36H17V30.545C17 27.523 11.337 26 8.5 26Z" fill="#388372"/>
<path d="M31.5 20C31.5 22.21 29.71 24 27.5 24C25.29 24 23.5 22.21 23.5 20C23.5 17.79 25.29 16 27.5 16C29.71 16 31.5 17.79 31.5 20Z" fill="#388372"/>
<path fill-rule="evenodd" clip-rule="evenodd" d="M27.5 22C28.0304 22 28.5391 21.7893 28.9142 21.4142C29.2893 21.0391 29.5 20.5304 29.5 20C29.5 19.4696 29.2893 18.9609 28.9142 18.5858C28.5391 18.2107 28.0304 18 27.5 18C26.9696 18 26.4609 18.2107 26.0858 18.5858C25.7107 18.9609 25.5 19.4696 25.5 20C25.5 20.5304 25.7107 21.0391 26.0858 21.4142C26.4609 21.7893 26.9696 22 27.5 22ZM27.5 24C29.71 24 31.5 22.21 31.5 20C31.5 17.79 29.71 16 27.5 16C25.29 16 23.5 17.79 23.5 20C23.5 22.21 25.29 24 27.5 24Z" fill="#388372"/>
<path d="M22 18C22 20.21 20.21 22 18 22C15.79 22 14 20.21 14 18C14 15.79 15.79 14 18 14C20.21 14 22 15.79 22 18Z" fill="#388372"/>
<path fill-rule="evenodd" clip-rule="evenodd" d="M18 20C18.5304 20 19.0391 19.7893 19.4142 19.4142C19.7893 19.0391 20 18.5304 20 18C20 17.4696 19.7893 16.9609 19.4142 16.5858C19.0391 16.2107 18.5304 16 18 16C17.4696 16 16.9609 16.2107 16.5858 16.5858C16.2107 16.9609 16 17.4696 16 18C16 18.5304 16.2107 19.0391 16.5858 19.4142C16.9609 19.7893 17.4696 20 18 20ZM18 22C20.21 22 22 20.21 22 18C22 15.79 20.21 14 18 14C15.79 14 14 15.79 14 18C14 20.21 15.79 22 18 22Z" fill="#388372"/>
<path d="M17.0002 6.83301C17.0002 5.55122 16.491 4.32192 15.5847 3.41556C14.6783 2.5092 13.449 2.00001 12.1672 2.00001H8.99823C7.68696 1.9979 6.42739 2.51119 5.49109 3.42921C4.55478 4.34723 4.01675 5.59644 3.99301 6.90749C3.96926 8.21854 4.4617 9.48641 5.36414 10.4377C6.26659 11.3891 7.50675 11.9476 8.81723 11.993L9.00023 12V14C9.00023 14 17.0002 12.833 17.0002 6.83301Z" fill="#388372"/>
<path d="M20 5.236C20 3.84733 20.5516 2.51553 21.5336 1.53359C22.5155 0.551648 23.8473 0 25.236 0H31C32.3261 0 33.5979 0.526784 34.5355 1.46447C35.4732 2.40215 36 3.67392 36 5C36 6.32608 35.4732 7.59785 34.5355 8.53553C33.5979 9.47322 32.3261 10 31 10H29V13C29 13 20 11.736 20 5.236Z" fill="#388372"/>
<path d="M19 30.545C19 27.523 24.663 26 27.5 26C30.337 26 36 27.523 36 30.545V36H19V30.545Z" fill="#388372"/>
<path fill-rule="evenodd" clip-rule="evenodd" d="M21.334 29.983C21.018 30.295 21 30.474 21 30.546V34H34V30.545C34 30.475 33.982 30.295 33.666 29.983C33.332 29.654 32.781 29.301 32.026 28.978C30.506 28.327 28.65 28 27.5 28C26.35 28 24.493 28.327 22.974 28.978C22.219 29.301 21.668 29.654 21.334 29.983ZM27.5 26C24.663 26 19 27.523 19 30.545V36H36V30.545C36 27.523 30.337 26 27.5 26Z" fill="#388372"/>
<path fill-rule="evenodd" clip-rule="evenodd" d="M18.0001 29V28.545C18.0001 26.868 16.1531 25.652 13.9951 24.902C15.2475 24.3102 16.615 24.0022 18.0001 24C19.3852 24.0022 20.7528 24.3102 22.0051 24.902C19.8481 25.652 18.0001 26.868 18.0001 28.545V29Z" fill="#388372"/>
<path fill-rule="evenodd" clip-rule="evenodd" d="M18.0001 29V28.545C18.0001 27.652 18.5241 26.889 19.3401 26.258C19.3869 26.2223 19.4342 26.1873 19.4821 26.153C20.1781 25.647 21.0621 25.23 22.0051 24.903C21.0685 24.4614 20.0659 24.1759 19.0371 24.058C18.3483 23.9807 17.653 23.9807 16.9641 24.058C15.935 24.1755 14.9321 24.4606 13.9951 24.902C14.9381 25.23 15.8221 25.647 16.5191 26.152C16.5671 26.187 16.6131 26.222 16.6591 26.258C17.4761 26.888 18.0001 27.652 18.0001 28.545V29Z" fill="#388372"/>
</svg>
