<?xml version="1.0" encoding="UTF-8" standalone="no"?>
<!DOCTYPE svg PUBLIC "-//W3C//DTD SVG 1.1//EN"
 "http://www.w3.org/Graphics/SVG/1.1/DTD/svg11.dtd">
<!-- Generated by graphviz version 2.38.0 (20140413.2041)
 -->
<!-- Title: G Pages: 1 -->
<svg width="401pt" height="299pt"
 viewBox="0.00 0.00 400.50 298.74" xmlns="http://www.w3.org/2000/svg" xmlns:xlink="http://www.w3.org/1999/xlink">
<g id="graph0" class="graph" transform="scale(1 1) rotate(0) translate(4 294.74)">
<title>G</title>
<polygon fill="white" stroke="none" points="-4,4 -4,-294.74 396.5,-294.74 396.5,4 -4,4"/>
<!-- 3 -->
<g id="node1" class="node"><title>3</title>
<polygon fill="none" stroke="black" points="272.5,-38 174.5,-38 174.5,-0 272.5,-0 272.5,-38"/>
<text text-anchor="middle" x="223.5" y="-22.8" font-family="Times,serif" font-size="14.00">console_xen_0</text>
<text text-anchor="middle" x="223.5" y="-7.8" font-family="Times,serif" font-size="14.00">Console_xen</text>
</g>
<!-- 4 -->
<g id="node2" class="node"><title>4</title>
<polygon fill="none" stroke="black" points="392.5,-38 290.5,-38 290.5,-0 392.5,-0 392.5,-38"/>
<text text-anchor="middle" x="341.5" y="-22.8" font-family="Times,serif" font-size="14.00">console_unix_0</text>
<text text-anchor="middle" x="341.5" y="-7.8" font-family="Times,serif" font-size="14.00">Console_unix</text>
</g>
<!-- 5 -->
<g id="node3" class="node"><title>5</title>
<ellipse fill="none" stroke="black" cx="223.5" cy="-100.87" rx="33.4697" ry="26.7407"/>
<text text-anchor="middle" x="223.5" y="-104.67" font-family="Times,serif" font-size="14.00">If</text>
<text text-anchor="middle" x="223.5" y="-89.6701" font-family="Times,serif" font-size="14.00">target</text>
</g>
<!-- 5&#45;&gt;3 -->
<g id="edge1" class="edge"><title>5&#45;&gt;3:n</title>
<path fill="none" stroke="black" stroke-dasharray="1,5" d="M223.5,-73.9818C223.5,-66.0169 223.5,-57.0172 223.5,-48.1977"/>
<polygon fill="black" stroke="black" points="227,-48 223.5,-38 220,-48 227,-48"/>
</g>
<!-- 5&#45;&gt;4 -->
<g id="edge2" class="edge"><title>5&#45;&gt;4:n</title>
<path fill="none" stroke="black" stroke-width="2" stroke-dasharray="1,5" d="M256.37,-96.6426C288.012,-91.6997 332.219,-79.2791 340.23,-48.2421"/>
<polygon fill="black" stroke="black" stroke-width="2" points="343.743,-48.3547 341.5,-38 336.796,-47.4933 343.743,-48.3547"/>
</g>
<!-- 7 -->
<g id="node4" class="node"><title>7</title>
<polygon fill="none" stroke="black" points="67,-38 0,-38 0,-0 67,-0 67,-38"/>
<text text-anchor="middle" x="33.5" y="-22.8" font-family="Times,serif" font-size="14.00">argv_xen</text>
<text text-anchor="middle" x="33.5" y="-7.8" font-family="Times,serif" font-size="14.00">Bootvar</text>
</g>
<!-- 8 -->
<g id="node5" class="node"><title>8</title>
<polygon fill="none" stroke="black" points="156,-38 85,-38 85,-0 156,-0 156,-38"/>
<text text-anchor="middle" x="120.5" y="-22.8" font-family="Times,serif" font-size="14.00">argv_unix</text>
<text text-anchor="middle" x="120.5" y="-7.8" font-family="Times,serif" font-size="14.00">OS.Env</text>
</g>
<!-- 9 -->
<g id="node6" class="node"><title>9</title>
<ellipse fill="none" stroke="black" cx="120.5" cy="-100.87" rx="33.4697" ry="26.7407"/>
<text text-anchor="middle" x="120.5" y="-104.67" font-family="Times,serif" font-size="14.00">If</text>
<text text-anchor="middle" x="120.5" y="-89.6701" font-family="Times,serif" font-size="14.00">target</text>
</g>
<!-- 9&#45;&gt;7 -->
<g id="edge3" class="edge"><title>9&#45;&gt;7:n</title>
<path fill="none" stroke="black" stroke-dasharray="1,5" d="M89.091,-91.4819C67.2859,-83.7988 41.0779,-70.1831 34.8666,-48.0263"/>
<polygon fill="black" stroke="black" points="38.3185,-47.4357 33.5,-38 31.3826,-48.3811 38.3185,-47.4357"/>
</g>
<!-- 9&#45;&gt;8 -->
<g id="edge4" class="edge"><title>9&#45;&gt;8:n</title>
<path fill="none" stroke="black" stroke-width="2" stroke-dasharray="1,5" d="M120.5,-73.9818C120.5,-66.0169 120.5,-57.0172 120.5,-48.1977"/>
<polygon fill="black" stroke="black" stroke-width="2" points="124,-48 120.5,-38 117,-48 124,-48"/>
</g>
<!-- 10 -->
<g id="node7" class="node"><title>10</title>
<polygon fill="none" stroke="black" points="153,-201.74 88,-201.74 88,-163.74 153,-163.74 153,-201.74"/>
<text text-anchor="middle" x="120.5" y="-186.54" font-family="Times,serif" font-size="14.00">key</text>
<text text-anchor="middle" x="120.5" y="-171.54" font-family="Times,serif" font-size="14.00">Key_gen</text>
</g>
<!-- 10&#45;&gt;9 -->
<g id="edge5" class="edge"><title>10&#45;&gt;9</title>
<path fill="none" stroke="black" stroke-dasharray="5,2" d="M120.5,-163.616C120.5,-156.008 120.5,-146.875 120.5,-137.997"/>
<polygon fill="black" stroke="black" points="124,-137.796 120.5,-127.796 117,-137.796 124,-137.796"/>
</g>
<!-- 11 -->
<g id="node8" class="node"><title>11</title>
<polygon fill="none" stroke="black" points="224.5,-290.74 118.5,-290.74 118.5,-237.74 224.5,-237.74 224.5,-290.74"/>
<text text-anchor="middle" x="171.5" y="-275.54" font-family="Times,serif" font-size="14.00">mirage</text>
<text text-anchor="middle" x="171.5" y="-260.54" font-family="Times,serif" font-size="14.00">Mirage_runtime</text>
<text text-anchor="middle" x="171.5" y="-245.54" font-family="Times,serif" font-size="14.00">target, unix, xen</text>
</g>
<!-- 11&#45;&gt;10 -->
<g id="edge6" class="edge"><title>11&#45;&gt;10</title>
<path fill="none" stroke="black" stroke-dasharray="5,2" d="M155.083,-237.648C149.55,-229.024 143.361,-219.377 137.765,-210.653"/>
<polygon fill="black" stroke="black" points="140.546,-208.506 132.2,-201.979 134.654,-212.286 140.546,-208.506"/>
</g>
<!-- 13 -->
<g id="node9" class="node"><title>13</title>
<polygon fill="none" stroke="black" points="275.5,-201.74 171.5,-201.74 171.5,-163.74 275.5,-163.74 275.5,-201.74"/>
<text text-anchor="middle" x="223.5" y="-186.54" font-family="Times,serif" font-size="14.00">f1</text>
<text text-anchor="middle" x="223.5" y="-171.54" font-family="Times,serif" font-size="14.00">Unikernel.Main</text>
</g>
<!-- 11&#45;&gt;13 -->
<g id="edge7" class="edge"><title>11&#45;&gt;13</title>
<path fill="none" stroke="black" stroke-dasharray="5,2" d="M188.239,-237.648C193.94,-228.933 200.323,-219.173 206.076,-210.378"/>
<polygon fill="black" stroke="black" points="209.025,-212.264 211.57,-201.979 203.167,-208.432 209.025,-212.264"/>
</g>
<!-- 13&#45;&gt;5 -->
<g id="edge8" class="edge"><title>13&#45;&gt;5</title>
<path fill="none" stroke="black" d="M223.5,-163.616C223.5,-156.008 223.5,-146.875 223.5,-137.997"/>
<polygon fill="black" stroke="black" points="227,-137.796 223.5,-127.796 220,-137.796 227,-137.796"/>
</g>
</g>
</svg>
