<?xml version="1.0" encoding="UTF-8" standalone="no"?>
<!DOCTYPE svg PUBLIC "-//W3C//DTD SVG 1.1//EN"
 "http://www.w3.org/Graphics/SVG/1.1/DTD/svg11.dtd">
<!-- Generated by graphviz version 2.38.0 (20140413.2041)
 -->
<!-- Title: G Pages: 1 -->
<svg width="420pt" height="299pt"
 viewBox="0.00 0.00 419.50 298.74" xmlns="http://www.w3.org/2000/svg" xmlns:xlink="http://www.w3.org/1999/xlink">
<g id="graph0" class="graph" transform="scale(1 1) rotate(0) translate(4 294.74)">
<title>G</title>
<polygon fill="white" stroke="none" points="-4,4 -4,-294.74 415.5,-294.74 415.5,4 -4,4"/>
<!-- 2 -->
<g id="node1" class="node"><title>2</title>
<polygon fill="none" stroke="black" points="228,-119.87 163,-119.87 163,-81.8701 228,-81.8701 228,-119.87"/>
<text text-anchor="middle" x="195.5" y="-104.67" font-family="Times,serif" font-size="14.00">info</text>
<text text-anchor="middle" x="195.5" y="-89.6701" font-family="Times,serif" font-size="14.00">Info_gen</text>
</g>
<!-- 4 -->
<g id="node2" class="node"><title>4</title>
<polygon fill="none" stroke="black" points="291.5,-38 193.5,-38 193.5,-0 291.5,-0 291.5,-38"/>
<text text-anchor="middle" x="242.5" y="-22.8" font-family="Times,serif" font-size="14.00">console_xen_0</text>
<text text-anchor="middle" x="242.5" y="-7.8" font-family="Times,serif" font-size="14.00">Console_xen</text>
</g>
<!-- 5 -->
<g id="node3" class="node"><title>5</title>
<polygon fill="none" stroke="black" points="411.5,-38 309.5,-38 309.5,-0 411.5,-0 411.5,-38"/>
<text text-anchor="middle" x="360.5" y="-22.8" font-family="Times,serif" font-size="14.00">console_unix_0</text>
<text text-anchor="middle" x="360.5" y="-7.8" font-family="Times,serif" font-size="14.00">Console_unix</text>
</g>
<!-- 6 -->
<g id="node4" class="node"><title>6</title>
<ellipse fill="none" stroke="black" cx="279.5" cy="-100.87" rx="33.4697" ry="26.7407"/>
<text text-anchor="middle" x="279.5" y="-104.67" font-family="Times,serif" font-size="14.00">If</text>
<text text-anchor="middle" x="279.5" y="-89.6701" font-family="Times,serif" font-size="14.00">target</text>
</g>
<!-- 6&#45;&gt;4 -->
<g id="edge1" class="edge"><title>6&#45;&gt;4:n</title>
<path fill="none" stroke="black" stroke-dasharray="1,5" d="M259.484,-79.034C252.741,-70.3406 246.269,-59.6071 243.682,-48.1831"/>
<polygon fill="black" stroke="black" points="247.13,-47.5297 242.5,-38 240.176,-48.3369 247.13,-47.5297"/>
</g>
<!-- 6&#45;&gt;5 -->
<g id="edge2" class="edge"><title>6&#45;&gt;5:n</title>
<path fill="none" stroke="black" stroke-width="2" stroke-dasharray="1,5" d="M310.123,-90.298C330.014,-82.2346 353.291,-68.6551 359.123,-47.9959"/>
<polygon fill="black" stroke="black" stroke-width="2" points="362.602,-48.3842 360.5,-38 355.668,-47.4287 362.602,-48.3842"/>
</g>
<!-- 8 -->
<g id="node5" class="node"><title>8</title>
<polygon fill="none" stroke="black" points="67,-38 0,-38 0,-0 67,-0 67,-38"/>
<text text-anchor="middle" x="33.5" y="-22.8" font-family="Times,serif" font-size="14.00">argv_xen</text>
<text text-anchor="middle" x="33.5" y="-7.8" font-family="Times,serif" font-size="14.00">Bootvar</text>
</g>
<!-- 9 -->
<g id="node6" class="node"><title>9</title>
<polygon fill="none" stroke="black" points="156,-38 85,-38 85,-0 156,-0 156,-38"/>
<text text-anchor="middle" x="120.5" y="-22.8" font-family="Times,serif" font-size="14.00">argv_unix</text>
<text text-anchor="middle" x="120.5" y="-7.8" font-family="Times,serif" font-size="14.00">OS.Env</text>
</g>
<!-- 10 -->
<g id="node7" class="node"><title>10</title>
<ellipse fill="none" stroke="black" cx="101.5" cy="-100.87" rx="33.4697" ry="26.7407"/>
<text text-anchor="middle" x="101.5" y="-104.67" font-family="Times,serif" font-size="14.00">If</text>
<text text-anchor="middle" x="101.5" y="-89.6701" font-family="Times,serif" font-size="14.00">target</text>
</g>
<!-- 10&#45;&gt;8 -->
<g id="edge3" class="edge"><title>10&#45;&gt;8:n</title>
<path fill="none" stroke="black" stroke-dasharray="1,5" d="M72.6619,-87.2558C57.0243,-78.5923 39.8953,-65.504 34.9242,-48.1073"/>
<polygon fill="black" stroke="black" points="38.3611,-47.4138 33.5,-38 31.4296,-48.3906 38.3611,-47.4138"/>
</g>
<!-- 10&#45;&gt;9 -->
<g id="edge4" class="edge"><title>10&#45;&gt;9:n</title>
<path fill="none" stroke="black" stroke-width="2" stroke-dasharray="1,5" d="M112.662,-75.4077C115.699,-67.2063 118.503,-57.7241 119.778,-48.2367"/>
<polygon fill="black" stroke="black" stroke-width="2" points="123.287,-48.2216 120.5,-38 116.305,-47.7288 123.287,-48.2216"/>
</g>
<!-- 11 -->
<g id="node8" class="node"><title>11</title>
<polygon fill="none" stroke="black" points="134,-201.74 69,-201.74 69,-163.74 134,-163.74 134,-201.74"/>
<text text-anchor="middle" x="101.5" y="-186.54" font-family="Times,serif" font-size="14.00">key</text>
<text text-anchor="middle" x="101.5" y="-171.54" font-family="Times,serif" font-size="14.00">Key_gen</text>
</g>
<!-- 11&#45;&gt;10 -->
<g id="edge5" class="edge"><title>11&#45;&gt;10</title>
<path fill="none" stroke="black" stroke-dasharray="5,2" d="M101.5,-163.616C101.5,-156.008 101.5,-146.875 101.5,-137.997"/>
<polygon fill="black" stroke="black" points="105,-137.796 101.5,-127.796 98.0001,-137.796 105,-137.796"/>
</g>
<!-- 12 -->
<g id="node9" class="node"><title>12</title>
<polygon fill="none" stroke="black" points="205.5,-290.74 99.5,-290.74 99.5,-237.74 205.5,-237.74 205.5,-290.74"/>
<text text-anchor="middle" x="152.5" y="-275.54" font-family="Times,serif" font-size="14.00">mirage</text>
<text text-anchor="middle" x="152.5" y="-260.54" font-family="Times,serif" font-size="14.00">Mirage_runtime</text>
<text text-anchor="middle" x="152.5" y="-245.54" font-family="Times,serif" font-size="14.00">target, unix, xen</text>
</g>
<!-- 12&#45;&gt;11 -->
<g id="edge6" class="edge"><title>12&#45;&gt;11</title>
<path fill="none" stroke="black" stroke-dasharray="5,2" d="M136.083,-237.648C130.55,-229.024 124.361,-219.377 118.765,-210.653"/>
<polygon fill="black" stroke="black" points="121.546,-208.506 113.2,-201.979 115.654,-212.286 121.546,-208.506"/>
</g>
<!-- 14 -->
<g id="node10" class="node"><title>14</title>
<polygon fill="none" stroke="black" points="256.5,-201.74 152.5,-201.74 152.5,-163.74 256.5,-163.74 256.5,-201.74"/>
<text text-anchor="middle" x="204.5" y="-186.54" font-family="Times,serif" font-size="14.00">f1</text>
<text text-anchor="middle" x="204.5" y="-171.54" font-family="Times,serif" font-size="14.00">Unikernel.Main</text>
</g>
<!-- 12&#45;&gt;14 -->
<g id="edge7" class="edge"><title>12&#45;&gt;14</title>
<path fill="none" stroke="black" stroke-dasharray="5,2" d="M169.239,-237.648C174.94,-228.933 181.323,-219.173 187.076,-210.378"/>
<polygon fill="black" stroke="black" points="190.025,-212.264 192.57,-201.979 184.167,-208.432 190.025,-212.264"/>
</g>
<!-- 14&#45;&gt;2 -->
<g id="edge8" class="edge"><title>14&#45;&gt;2</title>
<path fill="none" stroke="black" stroke-dasharray="5,2" d="M202.458,-163.616C201.342,-153.711 199.934,-141.223 198.678,-130.073"/>
<polygon fill="black" stroke="black" points="202.132,-129.467 197.534,-119.922 195.176,-130.251 202.132,-129.467"/>
</g>
<!-- 14&#45;&gt;6 -->
<g id="edge9" class="edge"><title>14&#45;&gt;6</title>
<path fill="none" stroke="black" d="M221.519,-163.616C230.789,-153.744 242.469,-141.306 252.911,-130.185"/>
<polygon fill="black" stroke="black" points="255.605,-132.43 259.899,-122.744 250.502,-127.638 255.605,-132.43"/>
</g>
</g>
</svg>
