<svg width="23" height="23" viewBox="0 0 23 23" fill="none" xmlns="http://www.w3.org/2000/svg">
<g clip-path="url(#clip0_207_33707)">
<path fill-rule="evenodd" clip-rule="evenodd" d="M3.21875 3.39289C3.21875 2.90666 3.4119 2.44034 3.75572 2.09653C4.09954 1.75271 4.56585 1.55956 5.05208 1.55956H14.2023C14.6884 1.55966 15.1547 1.75288 15.4984 2.09672L19.1816 5.77989C19.5254 6.12362 19.7186 6.58986 19.7188 7.07606V19.8929C19.7188 20.3791 19.5256 20.8454 19.1818 21.1892C18.838 21.5331 18.3716 21.7262 17.8854 21.7262H4.82292C4.64058 21.7262 4.46571 21.6538 4.33678 21.5249C4.20785 21.3959 4.13542 21.2211 4.13542 21.0387C4.13542 20.8564 4.20785 20.6815 4.33678 20.5526C4.46571 20.4237 4.64058 20.3512 4.82292 20.3512H17.8854C18.007 20.3512 18.1236 20.3029 18.2095 20.217C18.2955 20.131 18.3438 20.0144 18.3438 19.8929V8.43455H14.6771C14.1909 8.43455 13.7245 8.2414 13.3807 7.89758C13.0369 7.55377 12.8438 7.08745 12.8438 6.60122V2.93456H5.05208C4.93053 2.93456 4.81395 2.98284 4.72799 3.0688C4.64204 3.15475 4.59375 3.27133 4.59375 3.39289V9.12205C4.59375 9.30439 4.52132 9.47926 4.39239 9.60819C4.26345 9.73712 4.08859 9.80956 3.90625 9.80956C3.72391 9.80956 3.54905 9.73712 3.42011 9.60819C3.29118 9.47926 3.21875 9.30439 3.21875 9.12205V3.39289ZM14.2188 2.93456V6.60122C14.2188 6.72278 14.267 6.83936 14.353 6.92531C14.4389 7.01127 14.5555 7.05956 14.6771 7.05956H18.3438C18.3397 6.94365 18.2919 6.83359 18.2099 6.75155L14.5268 3.06839C14.4447 2.98642 14.3347 2.93859 14.2188 2.93456Z" fill="#333333"/>
<path fill-rule="evenodd" clip-rule="evenodd" d="M0.46875 13.2471C0.46875 12.3615 1.18742 11.6429 2.07292 11.6429H4.82292C5.70842 11.6429 6.42708 12.3615 6.42708 13.2471V16.9137C6.42708 17.3392 6.25807 17.7472 5.95723 18.048C5.65639 18.3489 5.24837 18.5179 4.82292 18.5179H2.07292C1.64747 18.5179 1.23944 18.3489 0.9386 18.048C0.63776 17.7472 0.46875 17.3392 0.46875 16.9137L0.46875 13.2471ZM2.07292 13.0179C2.01214 13.0179 1.95385 13.042 1.91087 13.085C1.86789 13.128 1.84375 13.1863 1.84375 13.2471V16.9137C1.84375 17.0402 1.94642 17.1429 2.07292 17.1429H4.82292C4.8837 17.1429 4.94199 17.1187 4.98496 17.0758C5.02794 17.0328 5.05208 16.9745 5.05208 16.9137V13.2471C5.05208 13.1863 5.02794 13.128 4.98496 13.085C4.94199 13.042 4.8837 13.0179 4.82292 13.0179H2.07292Z" fill="#333333"/>
<path d="M8.71875 11.6429C8.53641 11.6429 8.36155 11.7153 8.23261 11.8442C8.10368 11.9732 8.03125 12.148 8.03125 12.3304C8.03125 12.5127 8.10368 12.6876 8.23261 12.8165C8.36155 12.9455 8.53641 13.0179 8.71875 13.0179H10.0938V17.1429H8.71875C8.53641 17.1429 8.36155 17.2153 8.23261 17.3442C8.10368 17.4732 8.03125 17.648 8.03125 17.8304C8.03125 18.0127 8.10368 18.1876 8.23261 18.3165C8.36155 18.4455 8.53641 18.5179 8.71875 18.5179H12.8438C13.0261 18.5179 13.201 18.4455 13.3299 18.3165C13.4588 18.1876 13.5312 18.0127 13.5312 17.8304C13.5312 17.648 13.4588 17.4732 13.3299 17.3442C13.201 17.2153 13.0261 17.1429 12.8438 17.1429H11.4688V12.3304C11.4688 12.148 11.3963 11.9732 11.2674 11.8442C11.1385 11.7153 10.9636 11.6429 10.7812 11.6429H8.71875Z" fill="#333333"/>
</g>
<defs>
<clipPath id="clip0_207_33707">
<rect width="22" height="22" fill="white" transform="translate(0.46875 0.642883)"/>
</clipPath>
</defs>
</svg>
