<svg width="19" height="19" viewBox="0 0 19 19" fill="none" xmlns="http://www.w3.org/2000/svg">
<g clip-path="url(#clip0_317_400)">
<path d="M9.16699 5.9375V16.625M9.16699 5.9375C8.57324 3.59368 6.33072 2.3969 1.44824 2.375C1.37018 2.37471 1.29284 2.38987 1.22067 2.4196C1.1485 2.44934 1.08293 2.49306 1.02774 2.54825C0.972542 2.60345 0.928818 2.66902 0.899083 2.74119C0.869349 2.81336 0.854192 2.8907 0.854486 2.96875V13.6563C0.854486 13.8137 0.917041 13.9647 1.02839 14.0761C1.13974 14.1874 1.29076 14.25 1.44824 14.25C6.19824 14.25 8.0333 15.2078 9.16699 16.625C10.294 15.2148 12.1357 14.25 16.8857 14.25C17.2524 14.25 17.4795 13.9513 17.4795 13.5846V2.96875C17.4798 2.8907 17.4646 2.81336 17.4349 2.74119C17.4052 2.66902 17.3614 2.60345 17.3062 2.54825C17.251 2.49306 17.1855 2.44934 17.1133 2.4196C17.0411 2.38987 16.9638 2.37471 16.8857 2.375C12.0033 2.3969 9.76074 3.59368 9.16699 5.9375Z" stroke="#7B7B7B" stroke-width="1.3125" stroke-linecap="round" stroke-linejoin="round"/>
</g>
<defs>
<clipPath id="clip0_317_400">
<rect width="19" height="19" fill="white" transform="matrix(-1 0 0 1 18.667 0)"/>
</clipPath>
</defs>
</svg>
