<svg width="20" height="20" viewBox="0 0 20 20" fill="none" xmlns="http://www.w3.org/2000/svg">
<path fill-rule="evenodd" clip-rule="evenodd" d="M10.0538 0.557884C4.75997 0.557884 0.46875 4.8491 0.46875 10.1429C0.46875 15.4367 4.75997 19.7279 10.0538 19.7279C15.3475 19.7279 19.6388 15.4367 19.6388 10.1429C19.6388 4.8491 15.3475 0.557884 10.0538 0.557884ZM1.96875 10.1429C1.96875 5.67753 5.58839 2.05788 10.0538 2.05788C14.5191 2.05788 18.1388 5.67753 18.1388 10.1429C18.1388 14.6082 14.5191 18.2279 10.0538 18.2279C5.58839 18.2279 1.96875 14.6082 1.96875 10.1429ZM5.98969 6.52029C6.28258 6.2274 6.75746 6.2274 7.05035 6.52029L10.1426 9.61254C10.4355 9.90543 10.4355 10.3803 10.1426 10.6732L7.05035 13.7655C6.75746 14.0583 6.28258 14.0583 5.98969 13.7655C5.6968 13.4726 5.6968 12.9977 5.98969 12.7048L8.55161 10.1429L5.98969 7.58095C5.6968 7.28806 5.6968 6.81318 5.98969 6.52029ZM11.291 6.52029C11.5839 6.2274 12.0587 6.2274 12.3516 6.52029L15.4439 9.61254C15.5845 9.75319 15.6635 9.94396 15.6635 10.1429C15.6635 10.3418 15.5845 10.5325 15.4439 10.6732L12.3516 13.7655C12.0587 14.0583 11.5839 14.0583 11.291 13.7655C10.9981 13.4726 10.9981 12.9977 11.291 12.7048L13.8529 10.1429L11.291 7.58095C10.9981 7.28806 10.9981 6.81318 11.291 6.52029Z" fill="#333333"/>
</svg>
