<svg width="23" height="23" viewBox="0 0 23 23" fill="none" xmlns="http://www.w3.org/2000/svg">
<path d="M17.493 6.02222C16.9948 4.83573 16.1574 3.82278 15.0857 3.11043C14.014 2.39808 12.7559 2.01805 11.469 2.01804C10.1822 2.01802 8.92404 2.398 7.85235 3.11032C6.78066 3.82264 5.94318 4.83558 5.44498 6.02205C4.37446 6.51758 3.46723 7.30778 2.82947 8.30016C2.19171 9.29255 1.8498 10.4461 1.84377 11.6257C1.83466 14.9615 4.53877 17.7441 7.87177 17.8284C8.87962 17.8552 9.87864 17.6343 10.7813 17.1852V20.5804C10.7813 20.7627 10.8537 20.9376 10.9826 21.0665C11.1116 21.1954 11.2864 21.2679 11.4688 21.2679C11.6511 21.2679 11.826 21.1954 11.9549 21.0665C12.0838 20.9376 12.1563 20.7627 12.1563 20.5804V17.1852C13.0104 17.6108 13.9518 17.8317 14.9061 17.8304C14.9593 17.8304 15.0125 17.8297 15.0659 17.8284C18.3989 17.744 21.1031 14.9614 21.0938 11.6253C21.0877 10.4459 20.7458 9.29249 20.1081 8.30022C19.4704 7.30794 18.5633 6.51779 17.493 6.02222V6.02222ZM15.0312 16.4538C14.0381 16.4816 13.061 16.1991 12.2359 15.6457C12.2097 15.6282 12.1831 15.6122 12.1563 15.5967V12.0678L15.9013 10.1953C15.9827 10.1553 16.0555 10.0996 16.1153 10.0314C16.1752 9.96323 16.2209 9.88386 16.2499 9.79789C16.279 9.71192 16.2907 9.62106 16.2844 9.53054C16.2782 9.44002 16.2541 9.35164 16.2135 9.27049C16.1729 9.18933 16.1166 9.11701 16.048 9.0577C15.9793 8.99839 15.8996 8.95326 15.8134 8.9249C15.7272 8.89655 15.6362 8.88554 15.5458 8.89251C15.4553 8.89947 15.3671 8.92428 15.2863 8.96549L12.1563 10.5304V8.20538C12.1563 8.02304 12.0838 7.84817 11.9549 7.71924C11.826 7.59031 11.6511 7.51788 11.4688 7.51788C11.2864 7.51788 11.1116 7.59031 10.9826 7.71924C10.8537 7.84817 10.7813 8.02304 10.7813 8.20538V12.593L7.65126 11.028C7.57042 10.9868 7.48223 10.962 7.39176 10.955C7.3013 10.948 7.21034 10.9591 7.12415 10.9874C7.03796 11.0158 6.95823 11.0609 6.88957 11.1202C6.8209 11.1795 6.76466 11.2518 6.72408 11.333C6.68349 11.4141 6.65938 11.5025 6.65312 11.593C6.64686 11.6836 6.65858 11.7744 6.6876 11.8604C6.71662 11.9464 6.76238 12.0257 6.82222 12.0939C6.88207 12.1621 6.95482 12.2178 7.03629 12.2578L10.7813 14.1303V15.5966C10.7544 15.6121 10.7278 15.6282 10.7018 15.6457C9.87637 16.1983 8.89957 16.4808 7.90658 16.4538C6.82012 16.4256 5.7752 16.0305 4.94191 15.3328C4.10861 14.6351 3.53603 13.6758 3.31735 12.6112C3.09868 11.5467 3.2468 10.4394 3.73759 9.46969C4.22839 8.49999 5.03296 7.72498 6.02034 7.27081C6.33261 7.12725 6.57958 6.87163 6.7123 6.5546C7.10565 5.61775 7.7669 4.81791 8.61309 4.25544C9.45928 3.69297 10.4527 3.39291 11.4688 3.39291C12.4849 3.39291 13.4783 3.69297 14.3245 4.25544C15.1707 4.81791 15.832 5.61775 16.2253 6.5546C16.358 6.87159 16.6049 7.12719 16.9171 7.27081C17.9045 7.72496 18.709 8.49995 19.1998 9.46961C19.6906 10.4393 19.8388 11.5465 19.6202 12.6111C19.4015 13.6757 18.829 14.6349 17.9958 15.3326C17.1625 16.0304 16.1177 16.4256 15.0312 16.4538V16.4538Z" fill="#181818"/>
</svg>
