<svg width="23" height="23" viewBox="0 0 23 23" fill="none" xmlns="http://www.w3.org/2000/svg">
<path fill-rule="evenodd" clip-rule="evenodd" d="M2.79917 2.54917C2.44754 2.90081 2.25 3.37772 2.25 3.875V5.75H1.625C1.45924 5.75 1.30027 5.81585 1.18306 5.93306C1.06585 6.05027 1 6.20924 1 6.375C1 6.54076 1.06585 6.69973 1.18306 6.81694C1.30027 6.93415 1.45924 7 1.625 7H2.25V11.375H1.625C1.45924 11.375 1.30027 11.4408 1.18306 11.5581C1.06585 11.6753 1 11.8342 1 12C1 12.1658 1.06585 12.3247 1.18306 12.4419C1.30027 12.5592 1.45924 12.625 1.625 12.625H2.25V17H1.625C1.45924 17 1.30027 17.0658 1.18306 17.1831C1.06585 17.3003 1 17.4592 1 17.625C1 17.7908 1.06585 17.9497 1.18306 18.0669C1.30027 18.1842 1.45924 18.25 1.625 18.25H2.25V20.125C2.25 20.6223 2.44754 21.0992 2.79917 21.4508C3.15081 21.8025 3.62772 22 4.125 22H19.125C19.6223 22 20.0992 21.8025 20.4508 21.4508C20.8025 21.0992 21 20.6223 21 20.125V3.875C21 3.37772 20.8025 2.90081 20.4508 2.54917C20.0992 2.19754 19.6223 2 19.125 2H4.125C3.62772 2 3.15081 2.19754 2.79917 2.54917ZM3.68306 3.43306C3.80027 3.31585 3.95924 3.25 4.125 3.25H19.125C19.2908 3.25 19.4497 3.31585 19.5669 3.43306C19.6842 3.55027 19.75 3.70924 19.75 3.875V20.125C19.75 20.2908 19.6842 20.4497 19.5669 20.5669C19.4497 20.6842 19.2908 20.75 19.125 20.75H4.125C3.95924 20.75 3.80027 20.6842 3.68306 20.5669C3.56585 20.4497 3.5 20.2908 3.5 20.125V3.875C3.5 3.70924 3.56585 3.55027 3.68306 3.43306ZM18.3171 9.68304C18.1999 9.56583 18.0409 9.49998 17.8752 9.49998C17.7094 9.49998 17.5504 9.56583 17.4332 9.68304C17.316 9.80025 17.2502 9.95922 17.2502 10.125V13.875C17.2502 14.0407 17.316 14.1997 17.4332 14.3169C17.5504 14.4341 17.7094 14.5 17.8752 14.5C18.0409 14.5 18.1999 14.4341 18.3171 14.3169C18.4343 14.1997 18.5002 14.0407 18.5002 13.875V10.125C18.5002 9.95922 18.4343 9.80025 18.3171 9.68304ZM7.23814 7.44409C7.16221 7.4756 7.09324 7.52178 7.03518 7.57998C6.97698 7.63804 6.9308 7.70701 6.89929 7.78294C6.86778 7.85887 6.85156 7.94027 6.85156 8.02248C6.85156 8.10469 6.86778 8.18609 6.89929 8.26202C6.9308 8.33795 6.97698 8.40692 7.03518 8.46498L8.39768 9.82748C7.94714 10.4623 7.70512 11.2215 7.70512 12C7.70512 12.7784 7.94714 13.5376 8.39768 14.1725L7.03518 15.535C6.97707 15.5931 6.93097 15.6621 6.89953 15.738C6.86808 15.8139 6.85189 15.8953 6.85189 15.9775C6.85189 16.0597 6.86808 16.141 6.89953 16.217C6.93097 16.2929 6.97707 16.3619 7.03518 16.42C7.09329 16.4781 7.16228 16.5242 7.2382 16.5556C7.31413 16.5871 7.3955 16.6033 7.47768 16.6033C7.55986 16.6033 7.64123 16.5871 7.71716 16.5556C7.79308 16.5242 7.86207 16.4781 7.92018 16.42L9.28268 15.0575C9.91744 15.5082 10.6767 15.7503 11.4552 15.7503C12.2337 15.7503 12.9929 15.5082 13.6277 15.0575L14.9902 16.42C15.1075 16.5372 15.2666 16.6029 15.4325 16.6028C15.5983 16.6027 15.7574 16.5367 15.8746 16.4194C15.9917 16.302 16.0575 16.1429 16.0574 15.977C16.0573 15.8112 15.9913 15.6522 15.8739 15.535L14.5114 14.1725C15.4364 12.8775 15.4364 11.1237 14.5114 9.82748L15.8739 8.46498C15.9913 8.34779 16.0573 8.18877 16.0574 8.02292C16.0575 7.85707 15.9917 7.69796 15.8746 7.5806C15.7574 7.46325 15.5983 7.39725 15.4325 7.39713C15.2666 7.39701 15.1075 7.46279 14.9902 7.57998L13.6277 8.94248C12.9928 8.49194 12.2336 8.24992 11.4552 8.24992C10.6767 8.24992 9.91752 8.49194 9.28268 8.94248L7.92018 7.57998C7.86212 7.52178 7.79315 7.4756 7.71722 7.44409C7.64129 7.41258 7.55989 7.39636 7.47768 7.39636C7.39547 7.39636 7.31407 7.41258 7.23814 7.44409ZM9.12743 11.044C9.25845 10.739 9.4489 10.4631 9.68768 10.2325C10.1592 9.77708 10.7907 9.5251 11.4462 9.53079C12.1017 9.53649 12.7287 9.79941 13.1922 10.2629C13.6557 10.7265 13.9187 11.3535 13.9244 12.009C13.9301 12.6645 13.6781 13.296 13.2227 13.7675C12.9921 14.0063 12.7162 14.1967 12.4112 14.3277C12.1062 14.4588 11.7781 14.5277 11.4462 14.5306C11.1142 14.5335 10.785 14.4702 10.4778 14.3445C10.1706 14.2188 9.89142 14.0332 9.65669 13.7985C9.42196 13.5637 9.23633 13.2846 9.11063 12.9774C8.98492 12.6701 8.92167 12.3409 8.92455 12.009C8.92744 11.677 8.9964 11.349 9.12743 11.044Z" fill="#181818"/>
</svg>
