<svg width="19" height="19" viewBox="0 0 19 19" fill="none" xmlns="http://www.w3.org/2000/svg">
<path d="M2.91336 14.1016C2.95789 13.939 2.86029 13.713 2.76715 13.5501C2.73827 13.5015 2.70681 13.4544 2.67289 13.4091C1.87402 12.1976 1.44823 10.7783 1.44828 9.32707C1.43492 5.16154 4.88906 1.78125 9.16035 1.78125C12.8854 1.78125 15.9952 4.36184 16.7214 7.7874C16.8304 8.29527 16.8855 8.81321 16.8858 9.33264C16.8858 13.5041 13.5649 16.9375 9.29357 16.9375C8.6141 16.9375 7.69787 16.7668 7.19801 16.6269C6.69814 16.487 6.19902 16.3014 6.07025 16.2517C5.93843 16.2011 5.79844 16.175 5.65723 16.1749C5.50324 16.1743 5.35074 16.205 5.20894 16.265L2.69144 17.1735C2.63643 17.1973 2.57812 17.2125 2.51852 17.2188C2.47137 17.2186 2.42472 17.2091 2.38126 17.1908C2.33781 17.1725 2.29841 17.1458 2.26535 17.1122C2.23229 17.0786 2.20622 17.0388 2.18865 16.995C2.17109 16.9512 2.16237 16.9044 2.16301 16.8573C2.1661 16.8159 2.17357 16.775 2.18527 16.7352L2.91336 14.1016Z" stroke="#7B7B7B" stroke-width="1.1875" stroke-miterlimit="10" stroke-linecap="round"/>
<path d="M5.60449 10.6875C6.26033 10.6875 6.79199 10.1558 6.79199 9.5C6.79199 8.84416 6.26033 8.3125 5.60449 8.3125C4.94865 8.3125 4.41699 8.84416 4.41699 9.5C4.41699 10.1558 4.94865 10.6875 5.60449 10.6875Z" fill="#7B7B7B"/>
<path d="M9.16699 10.6875C9.82283 10.6875 10.3545 10.1558 10.3545 9.5C10.3545 8.84416 9.82283 8.3125 9.16699 8.3125C8.51115 8.3125 7.97949 8.84416 7.97949 9.5C7.97949 10.1558 8.51115 10.6875 9.16699 10.6875Z" fill="#7B7B7B"/>
<path d="M12.7295 10.6875C13.3853 10.6875 13.917 10.1558 13.917 9.5C13.917 8.84416 13.3853 8.3125 12.7295 8.3125C12.0737 8.3125 11.542 8.84416 11.542 9.5C11.542 10.1558 12.0737 10.6875 12.7295 10.6875Z" fill="#7B7B7B"/>
</svg>
