<svg width="26" height="26" viewBox="0 0 26 26" fill="none" xmlns="http://www.w3.org/2000/svg">
<path d="M12.8475 0.642883C5.846 0.642883 0.168945 6.31994 0.168945 13.3214C0.168945 20.323 5.846 26 12.8475 26C19.849 26 25.5261 20.323 25.5261 13.3214C25.5261 6.31994 19.849 0.642883 12.8475 0.642883ZM18.9406 10.1999C18.9491 10.3329 18.9491 10.4716 18.9491 10.6074C18.9491 14.7619 15.7851 19.5475 10.0033 19.5475C8.2204 19.5475 6.56766 19.0296 5.17528 18.1382C5.42998 18.1665 5.67337 18.1778 5.93373 18.1778C7.40535 18.1778 8.75811 17.6797 9.83635 16.8364C8.45529 16.8081 7.29498 15.9024 6.89877 14.6572C7.38271 14.728 7.81854 14.728 8.31662 14.6006C7.60551 14.4562 6.96634 14.0699 6.50771 13.5076C6.04908 12.9453 5.79927 12.2415 5.80072 11.5159V11.4763C6.21673 11.7112 6.70633 11.8555 7.21857 11.8753C6.78796 11.5883 6.43481 11.1995 6.19045 10.7434C5.94608 10.2872 5.81805 9.77783 5.8177 9.26035C5.8177 8.67453 5.97052 8.13965 6.24504 7.67553C7.03434 8.64718 8.01927 9.44187 9.13582 10.0079C10.2524 10.574 11.4755 10.8988 12.7258 10.9612C12.2815 8.82452 13.8776 7.09537 15.7964 7.09537C16.702 7.09537 17.5171 7.47459 18.0916 8.08588C18.8019 7.95287 19.4811 7.68685 20.0867 7.33026C19.8519 8.05758 19.3594 8.6717 18.7057 9.05941C19.3396 8.99149 19.9509 8.81603 20.5169 8.56982C20.0896 9.19809 19.5547 9.7556 18.9406 10.1999V10.1999Z" class='fill-current'/>
</svg>
